<svg xmlns="http://www.w3.org/2000/svg" viewBox="0 0 889.05 1024.87"><defs><style>.cls-1{fill:#e74c3c;}.cls-2{fill:#e04535;}.cls-3{fill:#c92e1e;}.cls-4{fill:#d83d2d;}.cls-5{fill:#ba1f0f;}.cls-6{fill:#fff;}</style></defs><title>logo</title><g id="Support"><polygon class="cls-1" points="889.05 256.06 445.55 0 2.05 256.06 2.05 768.16 445.55 1024.22 889.05 768.16 889.05 256.06"/></g><g id="Waterfall"><polygon class="cls-2" points="444.05 512.61 0.65 256.6 444.36 0.09 444.05 512.61"/><path class="cls-3" d="M511.84,1024.26S68.29,767.5,68,768,511.78,511.87,511.78,511.87Z" transform="translate(-67.95 0.61)"/><polygon class="cls-3" points="887.45 768.62 444.05 512.61 887.76 256.11 887.45 768.62"/><polygon class="cls-4" points="444.05 512.61 444.16 0.61 888.11 256.7 444.05 512.61"/><polygon class="cls-4" points="0 768.52 0.11 256.52 444.05 512.61 0 768.52"/><polygon class="cls-5" points="443.95 1024.61 444.05 512.61 888 768.7 443.95 1024.61"/><path class="cls-6" d="M512,512" transform="translate(-67.95 0.61)"/></g><g id="Columns"><rect class="cls-6" x="410.93" y="369.2" width="68.75" height="286.1"/><rect class="cls-6" x="394.81" y="338.68" width="100.98" height="31.45"/><rect class="cls-6" x="378.7" y="308.15" width="133.21" height="31.45"/><rect class="cls-6" x="394.81" y="654.37" width="100.98" height="31.45"/><rect class="cls-6" x="377.63" y="684.89" width="133.21" height="31.45"/><rect class="cls-6" x="248.71" y="369.2" width="68.75" height="286.1"/><rect class="cls-6" x="232.6" y="338.68" width="100.98" height="31.45"/><rect class="cls-6" x="216.48" y="308.15" width="133.21" height="31.45"/><rect class="cls-6" x="232.6" y="654.37" width="100.98" height="31.45"/><rect class="cls-6" x="215.41" y="684.89" width="133.21" height="31.45"/><rect class="cls-6" x="572.07" y="369.2" width="68.75" height="286.1"/><rect class="cls-6" x="555.96" y="338.68" width="100.98" height="31.45"/><rect class="cls-6" x="539.84" y="308.15" width="133.21" height="31.45"/><rect class="cls-6" x="555.96" y="654.37" width="100.98" height="31.45"/><rect class="cls-6" x="538.77" y="684.89" width="133.21" height="31.45"/><rect class="cls-6" x="151.07" y="277.78" width="586.24" height="20.29"/><rect class="cls-6" x="167.31" y="726.42" width="553.14" height="20.29"/><rect class="cls-6" x="147.72" y="756.78" width="592.34" height="83.83"/><polygon class="cls-6" points="151.05 267.61 737.05 267.61 444.05 127.61 151.05 267.61"/></g></svg>