<svg xmlns="http://www.w3.org/2000/svg" width="1920" height="640" viewBox="0 0 1920 640"><defs><style>.cls-1{fill:#185e89;}.cls-2{fill:#00a8fc;}.cls-3{font-size:86.46px;font-family:Roboto-Bold, Roboto;font-weight:700;}.cls-3,.cls-7,.cls-9{fill:#fff;}.cls-4{letter-spacing:-0.01em;}.cls-5{letter-spacing:0em;}.cls-6{letter-spacing:-0.01em;}.cls-8{fill:#0b6896;}.cls-9{font-size:33.62px;font-family:Roboto-Regular, Roboto;}.cls-10{letter-spacing:-0.01em;}.cls-11{letter-spacing:-0.01em;}.cls-12{letter-spacing:-0.01em;}.cls-13{fill:#e74c3c;}.cls-14{fill:#e04535;}.cls-15{fill:#c92e1e;}.cls-16{fill:#d83d2d;}.cls-17{fill:#ba1f0f;}</style></defs><title>main-image4</title><g id="Background"><rect class="cls-1" width="1920" height="640"/><polygon class="cls-2" points="747 640 2 640 2 0 747 0 935 320 747 640"/><polygon class="cls-2" points="799 640 993 320 799 0 768 0 962 320 768 640 799 640"/></g><g id="Text"><text class="cls-3" transform="translate(1050.7 243.01) scale(1.04 1)"><tspan class="cls-4">E</tspan><tspan class="cls-5" x="47.28" y="0">du</tspan><tspan class="cls-6" x="144.89" y="0">F</tspan><tspan x="192.08" y="0">o</tspan><tspan class="cls-4" x="240.88" y="0">r</tspan><tspan x="270.52" y="0">ge</tspan></text><rect class="cls-7" x="1053.1" y="290.27" width="3.6" height="189.73"/><rect class="cls-8" x="1056.7" y="290.27" width="595.6" height="189.73"/><text class="cls-9" transform="translate(1074.71 354.31)">Надійний <tspan class="cls-10" x="156.7" y="0">т</tspan><tspan x="173.64" y="0">а з</tspan><tspan class="cls-11" x="218.6" y="0">р</tspan><tspan x="237.52" y="0">учний засіб для </tspan><tspan x="0" y="40.35">збере</tspan><tspan class="cls-12" x="91.02" y="40.35">ж</tspan><tspan x="114.87" y="40.35">ення дипломів, курсових </tspan><tspan class="cls-10" x="517.62" y="40.35">т</tspan><tspan x="534.56" y="40.35">а </tspan><tspan x="0" y="80.69">інших документів.</tspan></text></g><g id="Additions"><path class="cls-1" d="M25.61,1.16,49.35,14.92V42.46L25.61,56.23,1.86,42.46V14.92L25.61,1.16m0-1.16L.86,14.35V43L25.61,57.38,50.35,43V14.35L25.61,0Z"/><path class="cls-1" d="M73.55,1.16,97.29,14.92V42.46L73.55,56.23,49.8,42.46V14.92L73.55,1.16m0-1.16L48.8,14.35V43L73.55,57.38,98.29,43V14.35L73.55,0Z"/><path class="cls-1" d="M121.49,1.16l23.74,13.76V42.46L121.49,56.23,97.74,42.46V14.92L121.49,1.16m0-1.16L96.74,14.35V43l24.75,14.34L146.23,43V14.35L121.49,0Z"/><path class="cls-1" d="M169.43,1.16l23.74,13.76V42.46L169.43,56.23,145.68,42.46V14.92L169.43,1.16m0-1.16L144.68,14.35V43l24.75,14.34L194.17,43V14.35L169.43,0Z"/><path class="cls-1" d="M217.37,1.16l23.74,13.76V42.46L217.37,56.23,193.62,42.46V14.92L217.37,1.16m0-1.16L192.62,14.35V43l24.75,14.34L242.11,43V14.35L217.37,0Z"/><path class="cls-1" d="M265.15,1.16,288.9,14.92V42.46L265.15,56.23,241.41,42.46V14.92L265.15,1.16m0-1.16L240.41,14.35V43l24.74,14.34L289.9,43V14.35L265.15,0Z"/><path class="cls-1" d="M313.09,1.16l23.75,13.76V42.46L313.09,56.23,289.35,42.46V14.92L313.09,1.16m0-1.16L288.35,14.35V43l24.74,14.34L337.84,43V14.35L313.09,0Z"/><path class="cls-1" d="M361,1.16l23.75,13.76V42.46L361,56.23,337.29,42.46V14.92L361,1.16M361,0,336.29,14.35V43L361,57.38,385.78,43V14.35L361,0Z"/><path class="cls-1" d="M409,1.16l23.75,13.76V42.46L409,56.23,385.23,42.46V14.92L409,1.16M409,0,384.23,14.35V43L409,57.38,433.72,43V14.35L409,0Z"/><path class="cls-1" d="M456.91,1.16l23.75,13.76V42.46L456.91,56.23,433.17,42.46V14.92L456.91,1.16m0-1.16L432.17,14.35V43l24.74,14.34L481.66,43V14.35L456.91,0Z"/><path class="cls-1" d="M504.85,1.16,528.6,14.92V42.46L504.85,56.23,481.11,42.46V14.92L504.85,1.16m0-1.16L480.11,14.35V43l24.74,14.34L529.6,43V14.35L504.85,0Z"/><path class="cls-1" d="M552.79,1.16l23.75,13.76V42.46L552.79,56.23,529.05,42.46V14.92L552.79,1.16m0-1.16L528.05,14.35V43l24.74,14.34L577.54,43V14.35L552.79,0Z"/><path class="cls-1" d="M600.73,1.16l23.75,13.76V42.46L600.73,56.23,577,42.46V14.92L600.73,1.16m0-1.16L576,14.35V43l24.74,14.34L625.48,43V14.35L600.73,0Z"/><path class="cls-1" d="M648.83,1.16l23.74,13.76V42.46L648.83,56.23,625.08,42.46V14.92L648.83,1.16m0-1.16L624.08,14.35V43l24.75,14.34L673.57,43V14.35L648.83,0Z"/><path class="cls-1" d="M696.61,1.16l23.75,13.76V42.46L696.61,56.23,672.87,42.46V14.92L696.61,1.16m0-1.16L671.87,14.35V43l24.74,14.34L721.36,43V14.35L696.61,0Z"/><path class="cls-1" d="M744.55,1.16,768.3,14.92V42.46L744.55,56.23,720.81,42.46V14.92L744.55,1.16m0-1.16L719.81,14.35V43l24.74,14.34L769.3,43V14.35L744.55,0Z"/><path class="cls-1" d="M49.58,42.78,73.32,56.55V84.08L49.58,97.85,25.83,84.08V56.55L49.58,42.78m0-1.16L24.83,56V84.66L49.58,99,74.32,84.66V56L49.58,41.62Z"/><path class="cls-1" d="M97.52,42.78l23.74,13.77V84.08L97.52,97.85,73.77,84.08V56.55L97.52,42.78m0-1.16L72.77,56V84.66L97.52,99l24.74-14.35V56L97.52,41.62Z"/><path class="cls-1" d="M145.46,42.78,169.2,56.55V84.08L145.46,97.85,121.71,84.08V56.55l23.75-13.77m0-1.16L120.71,56V84.66L145.46,99,170.2,84.66V56L145.46,41.62Z"/><path class="cls-1" d="M193.4,42.78l23.74,13.77V84.08L193.4,97.85,169.65,84.08V56.55L193.4,42.78m0-1.16L168.65,56V84.66L193.4,99l24.74-14.35V56L193.4,41.62Z"/><path class="cls-1" d="M241.34,42.78l23.74,13.77V84.08L241.34,97.85,217.59,84.08V56.55l23.75-13.77m0-1.16L216.59,56V84.66L241.34,99l24.74-14.35V56L241.34,41.62Z"/><path class="cls-1" d="M289.28,42.78,313,56.55V84.08L289.28,97.85,265.53,84.08V56.55l23.75-13.77m0-1.16L264.53,56V84.66L289.28,99,314,84.66V56L289.28,41.62Z"/><path class="cls-1" d="M337.22,42.78,361,56.55V84.08L337.22,97.85,313.47,84.08V56.55l23.75-13.77m0-1.16L312.47,56V84.66L337.22,99,362,84.66V56L337.22,41.62Z"/><path class="cls-1" d="M385.16,42.78,408.9,56.55V84.08L385.16,97.85,361.41,84.08V56.55l23.75-13.77m0-1.16L360.41,56V84.66L385.16,99,409.9,84.66V56L385.16,41.62Z"/><path class="cls-1" d="M433.1,42.78l23.74,13.77V84.08L433.1,97.85,409.35,84.08V56.55L433.1,42.78m0-1.16L408.35,56V84.66L433.1,99l24.74-14.35V56L433.1,41.62Z"/><path class="cls-1" d="M481,42.78l23.74,13.77V84.08L481,97.85,457.29,84.08V56.55L481,42.78m0-1.16L456.29,56V84.66L481,99l24.74-14.35V56L481,41.62Z"/><path class="cls-1" d="M529,42.78l23.74,13.77V84.08L529,97.85,505.23,84.08V56.55L529,42.78m0-1.16L504.23,56V84.66L529,99l24.74-14.35V56L529,41.62Z"/><path class="cls-1" d="M576.92,42.78l23.74,13.77V84.08L576.92,97.85,553.17,84.08V56.55l23.75-13.77m0-1.16L552.17,56V84.66L576.92,99l24.74-14.35V56L576.92,41.62Z"/><path class="cls-1" d="M624.86,42.78,648.6,56.55V84.08L624.86,97.85,601.11,84.08V56.55l23.75-13.77m0-1.16L600.11,56V84.66L624.86,99,649.6,84.66V56L624.86,41.62Z"/><path class="cls-1" d="M672.8,42.78l23.74,13.77V84.08L672.8,97.85,649.05,84.08V56.55L672.8,42.78m0-1.16L648.05,56V84.66L672.8,99l24.74-14.35V56L672.8,41.62Z"/><path class="cls-1" d="M720.74,42.78l23.74,13.77V84.08L720.74,97.85,697,84.08V56.55l23.75-13.77m0-1.16L696,56V84.66L720.74,99l24.74-14.35V56L720.74,41.62Z"/><path class="cls-1" d="M768.68,42.78l23.74,13.77V84.08L768.68,97.85,744.93,84.08V56.55l23.75-13.77m0-1.16L743.93,56V84.66L768.68,99l24.74-14.35V56L768.68,41.62Z"/><path class="cls-1" d="M25.61,84.4,49.35,98.17v27.54L25.61,139.47,1.86,125.71V98.17L25.61,84.4m0-1.15L.86,97.59v28.69l24.75,14.35,24.74-14.35V97.59L25.61,83.25Z"/><path class="cls-1" d="M73.55,84.4,97.29,98.17v27.54L73.55,139.47,49.8,125.71V98.17L73.55,84.4m0-1.15L48.8,97.59v28.69l24.75,14.35,24.74-14.35V97.59L73.55,83.25Z"/><path class="cls-1" d="M121.49,84.4l23.74,13.77v27.54l-23.74,13.76L97.74,125.71V98.17L121.49,84.4m0-1.15L96.74,97.59v28.69l24.75,14.35,24.74-14.35V97.59L121.49,83.25Z"/><path class="cls-1" d="M169.43,84.4l23.74,13.77v27.54l-23.74,13.76-23.75-13.76V98.17L169.43,84.4m0-1.15L144.68,97.59v28.69l24.75,14.35,24.74-14.35V97.59L169.43,83.25Z"/><path class="cls-1" d="M217.37,84.4l23.74,13.77v27.54l-23.74,13.76-23.75-13.76V98.17L217.37,84.4m0-1.15L192.62,97.59v28.69l24.75,14.35,24.74-14.35V97.59L217.37,83.25Z"/><path class="cls-1" d="M265.15,84.4,288.9,98.17v27.54l-23.75,13.76-23.74-13.76V98.17L265.15,84.4m0-1.15L240.41,97.59v28.69l24.74,14.35,24.75-14.35V97.59L265.15,83.25Z"/><path class="cls-1" d="M313.09,84.4l23.75,13.77v27.54l-23.75,13.76-23.74-13.76V98.17L313.09,84.4m0-1.15L288.35,97.59v28.69l24.74,14.35,24.75-14.35V97.59L313.09,83.25Z"/><path class="cls-1" d="M361,84.4l23.75,13.77v27.54L361,139.47l-23.74-13.76V98.17L361,84.4m0-1.15L336.29,97.59v28.69L361,140.63l24.75-14.35V97.59L361,83.25Z"/><path class="cls-1" d="M409,84.4l23.75,13.77v27.54L409,139.47l-23.74-13.76V98.17L409,84.4m0-1.15L384.23,97.59v28.69L409,140.63l24.75-14.35V97.59L409,83.25Z"/><path class="cls-1" d="M456.91,84.4l23.75,13.77v27.54l-23.75,13.76-23.74-13.76V98.17L456.91,84.4m0-1.15L432.17,97.59v28.69l24.74,14.35,24.75-14.35V97.59L456.91,83.25Z"/><path class="cls-1" d="M504.85,84.4,528.6,98.17v27.54l-23.75,13.76-23.74-13.76V98.17L504.85,84.4m0-1.15L480.11,97.59v28.69l24.74,14.35,24.75-14.35V97.59L504.85,83.25Z"/><path class="cls-1" d="M552.79,84.4l23.75,13.77v27.54l-23.75,13.76-23.74-13.76V98.17L552.79,84.4m0-1.15L528.05,97.59v28.69l24.74,14.35,24.75-14.35V97.59L552.79,83.25Z"/><path class="cls-1" d="M600.73,84.4l23.75,13.77v27.54l-23.75,13.76L577,125.71V98.17L600.73,84.4m0-1.15L576,97.59v28.69l24.74,14.35,24.75-14.35V97.59L600.73,83.25Z"/><path class="cls-1" d="M648.83,84.4l23.74,13.77v27.54l-23.74,13.76-23.75-13.76V98.17L648.83,84.4m0-1.15L624.08,97.59v28.69l24.75,14.35,24.74-14.35V97.59L648.83,83.25Z"/><path class="cls-1" d="M696.61,84.4l23.75,13.77v27.54l-23.75,13.76-23.74-13.76V98.17L696.61,84.4m0-1.15L671.87,97.59v28.69l24.74,14.35,24.75-14.35V97.59L696.61,83.25Z"/><path class="cls-1" d="M744.55,84.4,768.3,98.17v27.54l-23.75,13.76-23.74-13.76V98.17L744.55,84.4m0-1.15L719.81,97.59v28.69l24.74,14.35,24.75-14.35V97.59L744.55,83.25Z"/><path class="cls-1" d="M792.49,84.4l23.75,13.77v27.54l-23.75,13.76-23.74-13.76V98.17L792.49,84.4m0-1.15L767.75,97.59v28.69l24.74,14.35,24.75-14.35V97.59L792.49,83.25Z"/><path class="cls-1" d="M49.58,126l23.74,13.76v27.54L49.58,181.1,25.83,167.33V139.8L49.58,126m0-1.16L24.83,139.22v28.69l24.75,14.34,24.74-14.34V139.22L49.58,124.87Z"/><path class="cls-1" d="M97.52,126l23.74,13.76v27.54L97.52,181.1,73.77,167.33V139.8L97.52,126m0-1.16L72.77,139.22v28.69l24.75,14.34,24.74-14.34V139.22L97.52,124.87Z"/><path class="cls-1" d="M145.46,126l23.74,13.76v27.54L145.46,181.1l-23.75-13.77V139.8L145.46,126m0-1.16-24.75,14.35v28.69l24.75,14.34,24.74-14.34V139.22l-24.74-14.35Z"/><path class="cls-1" d="M193.4,126l23.74,13.76v27.54L193.4,181.1l-23.75-13.77V139.8L193.4,126m0-1.16-24.75,14.35v28.69l24.75,14.34,24.74-14.34V139.22L193.4,124.87Z"/><path class="cls-1" d="M241.34,126l23.74,13.76v27.54L241.34,181.1l-23.75-13.77V139.8L241.34,126m0-1.16-24.75,14.35v28.69l24.75,14.34,24.74-14.34V139.22l-24.74-14.35Z"/><path class="cls-1" d="M289.28,126,313,139.79v27.54L289.28,181.1l-23.75-13.77V139.8L289.28,126m0-1.16-24.75,14.35v28.69l24.75,14.34L314,167.91V139.22l-24.74-14.35Z"/><path class="cls-1" d="M337.22,126,361,139.79v27.54L337.22,181.1l-23.75-13.77V139.8L337.22,126m0-1.16-24.75,14.35v28.69l24.75,14.34L362,167.91V139.22l-24.74-14.35Z"/><path class="cls-1" d="M385.16,126l23.74,13.76v27.54L385.16,181.1l-23.75-13.77V139.8L385.16,126m0-1.16-24.75,14.35v28.69l24.75,14.34,24.74-14.34V139.22l-24.74-14.35Z"/><path class="cls-1" d="M433.1,126l23.74,13.76v27.54L433.1,181.1l-23.75-13.77V139.8L433.1,126m0-1.16-24.75,14.35v28.69l24.75,14.34,24.74-14.34V139.22L433.1,124.87Z"/><path class="cls-1" d="M481,126l23.74,13.76v27.54L481,181.1l-23.75-13.77V139.8L481,126m0-1.16-24.75,14.35v28.69L481,182.25l24.74-14.34V139.22L481,124.87Z"/><path class="cls-1" d="M529,126l23.74,13.76v27.54L529,181.1l-23.75-13.77V139.8L529,126m0-1.16-24.75,14.35v28.69L529,182.25l24.74-14.34V139.22L529,124.87Z"/><path class="cls-1" d="M576.92,126l23.74,13.76v27.54L576.92,181.1l-23.75-13.77V139.8L576.92,126m0-1.16-24.75,14.35v28.69l24.75,14.34,24.74-14.34V139.22l-24.74-14.35Z"/><path class="cls-1" d="M624.86,126l23.74,13.76v27.54L624.86,181.1l-23.75-13.77V139.8L624.86,126m0-1.16-24.75,14.35v28.69l24.75,14.34,24.74-14.34V139.22l-24.74-14.35Z"/><path class="cls-1" d="M672.8,126l23.74,13.76v27.54L672.8,181.1l-23.75-13.77V139.8L672.8,126m0-1.16-24.75,14.35v28.69l24.75,14.34,24.74-14.34V139.22L672.8,124.87Z"/><path class="cls-1" d="M720.74,126l23.74,13.76v27.54L720.74,181.1,697,167.33V139.8L720.74,126m0-1.16L696,139.22v28.69l24.75,14.34,24.74-14.34V139.22l-24.74-14.35Z"/><path class="cls-1" d="M768.68,126l23.74,13.76v27.54L768.68,181.1l-23.75-13.77V139.8L768.68,126m0-1.16-24.75,14.35v28.69l24.75,14.34,24.74-14.34V139.22l-24.74-14.35Z"/><path class="cls-1" d="M816.62,126l23.74,13.76v27.54L816.62,181.1l-23.75-13.77V139.8L816.62,126m0-1.16-24.75,14.35v28.69l24.75,14.34,24.74-14.34V139.22l-24.74-14.35Z"/><path class="cls-1" d="M25.61,167.59l23.74,13.77V208.9L25.61,222.66,1.86,208.9V181.36l23.75-13.77m0-1.15L.86,180.78v28.69l24.75,14.35,24.74-14.35V180.78L25.61,166.44Z"/><path class="cls-1" d="M73.55,167.59l23.74,13.77V208.9L73.55,222.66,49.8,208.9V181.36l23.75-13.77m0-1.15L48.8,180.78v28.69l24.75,14.35,24.74-14.35V180.78L73.55,166.44Z"/><path class="cls-1" d="M121.49,167.59l23.74,13.77V208.9l-23.74,13.76L97.74,208.9V181.36l23.75-13.77m0-1.15L96.74,180.78v28.69l24.75,14.35,24.74-14.35V180.78l-24.74-14.34Z"/><path class="cls-1" d="M169.43,167.59l23.74,13.77V208.9l-23.74,13.76L145.68,208.9V181.36l23.75-13.77m0-1.15-24.75,14.34v28.69l24.75,14.35,24.74-14.35V180.78l-24.74-14.34Z"/><path class="cls-1" d="M217.37,167.59l23.74,13.77V208.9l-23.74,13.76L193.62,208.9V181.36l23.75-13.77m0-1.15-24.75,14.34v28.69l24.75,14.35,24.74-14.35V180.78l-24.74-14.34Z"/><path class="cls-1" d="M265.15,167.59l23.75,13.77V208.9l-23.75,13.76L241.41,208.9V181.36l23.74-13.77m0-1.15-24.74,14.34v28.69l24.74,14.35,24.75-14.35V180.78l-24.75-14.34Z"/><path class="cls-1" d="M313.09,167.59l23.75,13.77V208.9l-23.75,13.76L289.35,208.9V181.36l23.74-13.77m0-1.15-24.74,14.34v28.69l24.74,14.35,24.75-14.35V180.78l-24.75-14.34Z"/><path class="cls-1" d="M361,167.59l23.75,13.77V208.9L361,222.66,337.29,208.9V181.36L361,167.59m0-1.15-24.74,14.34v28.69L361,223.82l24.75-14.35V180.78L361,166.44Z"/><path class="cls-1" d="M409,167.59l23.75,13.77V208.9L409,222.66,385.23,208.9V181.36L409,167.59m0-1.15-24.74,14.34v28.69L409,223.82l24.75-14.35V180.78L409,166.44Z"/><path class="cls-1" d="M456.91,167.59l23.75,13.77V208.9l-23.75,13.76L433.17,208.9V181.36l23.74-13.77m0-1.15-24.74,14.34v28.69l24.74,14.35,24.75-14.35V180.78l-24.75-14.34Z"/><path class="cls-1" d="M504.85,167.59l23.75,13.77V208.9l-23.75,13.76L481.11,208.9V181.36l23.74-13.77m0-1.15-24.74,14.34v28.69l24.74,14.35,24.75-14.35V180.78l-24.75-14.34Z"/><path class="cls-1" d="M552.79,167.59l23.75,13.77V208.9l-23.75,13.76L529.05,208.9V181.36l23.74-13.77m0-1.15-24.74,14.34v28.69l24.74,14.35,24.75-14.35V180.78l-24.75-14.34Z"/><path class="cls-1" d="M600.73,167.59l23.75,13.77V208.9l-23.75,13.76L577,208.9V181.36l23.74-13.77m0-1.15L576,180.78v28.69l24.74,14.35,24.75-14.35V180.78l-24.75-14.34Z"/><path class="cls-1" d="M648.83,167.59l23.74,13.77V208.9l-23.74,13.76L625.08,208.9V181.36l23.75-13.77m0-1.15-24.75,14.34v28.69l24.75,14.35,24.74-14.35V180.78l-24.74-14.34Z"/><path class="cls-1" d="M696.61,167.59l23.75,13.77V208.9l-23.75,13.76L672.87,208.9V181.36l23.74-13.77m0-1.15-24.74,14.34v28.69l24.74,14.35,24.75-14.35V180.78l-24.75-14.34Z"/><path class="cls-1" d="M744.55,167.59l23.75,13.77V208.9l-23.75,13.76L720.81,208.9V181.36l23.74-13.77m0-1.15-24.74,14.34v28.69l24.74,14.35,24.75-14.35V180.78l-24.75-14.34Z"/><path class="cls-1" d="M792.49,167.59l23.75,13.77V208.9l-23.75,13.76L768.75,208.9V181.36l23.74-13.77m0-1.15-24.74,14.34v28.69l24.74,14.35,24.75-14.35V180.78l-24.75-14.34Z"/><path class="cls-1" d="M840.43,167.59l23.75,13.77V208.9l-23.75,13.76L816.69,208.9V181.36l23.74-13.77m0-1.15-24.74,14.34v28.69l24.74,14.35,24.75-14.35V180.78l-24.75-14.34Z"/><path class="cls-1" d="M49.58,209.22,73.32,223v27.54L49.58,264.29,25.83,250.52V223l23.75-13.76m0-1.16L24.83,222.41V251.1l24.75,14.34L74.32,251.1V222.41L49.58,208.06Z"/><path class="cls-1" d="M97.52,209.22,121.26,223v27.54L97.52,264.29,73.77,250.52V223l23.75-13.76m0-1.16L72.77,222.41V251.1l24.75,14.34,24.74-14.34V222.41L97.52,208.06Z"/><path class="cls-1" d="M145.46,209.22,169.2,223v27.54l-23.74,13.77-23.75-13.77V223l23.75-13.76m0-1.16-24.75,14.35V251.1l24.75,14.34L170.2,251.1V222.41l-24.74-14.35Z"/><path class="cls-1" d="M193.4,209.22,217.14,223v27.54L193.4,264.29l-23.75-13.77V223l23.75-13.76m0-1.16-24.75,14.35V251.1l24.75,14.34,24.74-14.34V222.41L193.4,208.06Z"/><path class="cls-1" d="M241.34,209.22,265.08,223v27.54l-23.74,13.77-23.75-13.77V223l23.75-13.76m0-1.16-24.75,14.35V251.1l24.75,14.34,24.74-14.34V222.41l-24.74-14.35Z"/><path class="cls-1" d="M289.28,209.22,313,223v27.54l-23.74,13.77-23.75-13.77V223l23.75-13.76m0-1.16-24.75,14.35V251.1l24.75,14.34L314,251.1V222.41l-24.74-14.35Z"/><path class="cls-1" d="M337.22,209.22,361,223v27.54l-23.74,13.77-23.75-13.77V223l23.75-13.76m0-1.16-24.75,14.35V251.1l24.75,14.34L362,251.1V222.41l-24.74-14.35Z"/><path class="cls-1" d="M385.16,209.22,408.9,223v27.54l-23.74,13.77-23.75-13.77V223l23.75-13.76m0-1.16-24.75,14.35V251.1l24.75,14.34L409.9,251.1V222.41l-24.74-14.35Z"/><path class="cls-1" d="M433.1,209.22,456.84,223v27.54L433.1,264.29l-23.75-13.77V223l23.75-13.76m0-1.16-24.75,14.35V251.1l24.75,14.34,24.74-14.34V222.41L433.1,208.06Z"/><path class="cls-1" d="M481,209.22,504.78,223v27.54L481,264.29l-23.75-13.77V223L481,209.22m0-1.16-24.75,14.35V251.1L481,265.44l24.74-14.34V222.41L481,208.06Z"/><path class="cls-1" d="M529,209.22,552.72,223v27.54L529,264.29l-23.75-13.77V223L529,209.22m0-1.16-24.75,14.35V251.1L529,265.44l24.74-14.34V222.41L529,208.06Z"/><path class="cls-1" d="M576.92,209.22,600.66,223v27.54l-23.74,13.77-23.75-13.77V223l23.75-13.76m0-1.16-24.75,14.35V251.1l24.75,14.34,24.74-14.34V222.41l-24.74-14.35Z"/><path class="cls-1" d="M624.86,209.22,648.6,223v27.54l-23.74,13.77-23.75-13.77V223l23.75-13.76m0-1.16-24.75,14.35V251.1l24.75,14.34L649.6,251.1V222.41l-24.74-14.35Z"/><path class="cls-1" d="M672.8,209.22,696.54,223v27.54L672.8,264.29l-23.75-13.77V223l23.75-13.76m0-1.16-24.75,14.35V251.1l24.75,14.34,24.74-14.34V222.41L672.8,208.06Z"/><path class="cls-1" d="M720.74,209.22,744.48,223v27.54l-23.74,13.77L697,250.52V223l23.75-13.76m0-1.16L696,222.41V251.1l24.75,14.34,24.74-14.34V222.41l-24.74-14.35Z"/><path class="cls-1" d="M768.68,209.22,792.42,223v27.54l-23.74,13.77-23.75-13.77V223l23.75-13.76m0-1.16-24.75,14.35V251.1l24.75,14.34,24.74-14.34V222.41l-24.74-14.35Z"/><path class="cls-1" d="M816.62,209.22,840.36,223v27.54l-23.74,13.77-23.75-13.77V223l23.75-13.76m0-1.16-24.75,14.35V251.1l24.75,14.34,24.74-14.34V222.41l-24.74-14.35Z"/><path class="cls-1" d="M864.56,209.22,888.3,223v27.54l-23.74,13.77-23.75-13.77V223l23.75-13.76m0-1.16-24.75,14.35V251.1l24.75,14.34L889.3,251.1V222.41l-24.74-14.35Z"/><path class="cls-1" d="M25.61,250.84l23.74,13.77v27.53L25.61,305.91,1.86,292.14V264.61l23.75-13.77m0-1.16L.86,264v28.69l24.75,14.35,24.74-14.35V264L25.61,249.68Z"/><path class="cls-1" d="M73.55,250.84l23.74,13.77v27.53L73.55,305.91,49.8,292.14V264.61l23.75-13.77m0-1.16L48.8,264v28.69l24.75,14.35,24.74-14.35V264L73.55,249.68Z"/><path class="cls-1" d="M121.49,250.84l23.74,13.77v27.53l-23.74,13.77L97.74,292.14V264.61l23.75-13.77m0-1.16L96.74,264v28.69l24.75,14.35,24.74-14.35V264l-24.74-14.35Z"/><path class="cls-1" d="M169.43,250.84l23.74,13.77v27.53l-23.74,13.77-23.75-13.77V264.61l23.75-13.77m0-1.16L144.68,264v28.69l24.75,14.35,24.74-14.35V264l-24.74-14.35Z"/><path class="cls-1" d="M217.37,250.84l23.74,13.77v27.53l-23.74,13.77-23.75-13.77V264.61l23.75-13.77m0-1.16L192.62,264v28.69l24.75,14.35,24.74-14.35V264l-24.74-14.35Z"/><path class="cls-1" d="M265.15,250.84l23.75,13.77v27.53l-23.75,13.77-23.74-13.77V264.61l23.74-13.77m0-1.16L240.41,264v28.69l24.74,14.35,24.75-14.35V264l-24.75-14.35Z"/><path class="cls-1" d="M313.09,250.84l23.75,13.77v27.53l-23.75,13.77-23.74-13.77V264.61l23.74-13.77m0-1.16L288.35,264v28.69l24.74,14.35,24.75-14.35V264l-24.75-14.35Z"/><path class="cls-1" d="M361,250.84l23.75,13.77v27.53L361,305.91l-23.74-13.77V264.61L361,250.84m0-1.16L336.29,264v28.69L361,307.07l24.75-14.35V264L361,249.68Z"/><path class="cls-1" d="M409,250.84l23.75,13.77v27.53L409,305.91l-23.74-13.77V264.61L409,250.84m0-1.16L384.23,264v28.69L409,307.07l24.75-14.35V264L409,249.68Z"/><path class="cls-1" d="M456.91,250.84l23.75,13.77v27.53l-23.75,13.77-23.74-13.77V264.61l23.74-13.77m0-1.16L432.17,264v28.69l24.74,14.35,24.75-14.35V264l-24.75-14.35Z"/><path class="cls-1" d="M504.85,250.84l23.75,13.77v27.53l-23.75,13.77-23.74-13.77V264.61l23.74-13.77m0-1.16L480.11,264v28.69l24.74,14.35,24.75-14.35V264l-24.75-14.35Z"/><path class="cls-1" d="M552.79,250.84l23.75,13.77v27.53l-23.75,13.77-23.74-13.77V264.61l23.74-13.77m0-1.16L528.05,264v28.69l24.74,14.35,24.75-14.35V264l-24.75-14.35Z"/><path class="cls-1" d="M600.73,250.84l23.75,13.77v27.53l-23.75,13.77L577,292.14V264.61l23.74-13.77m0-1.16L576,264v28.69l24.74,14.35,24.75-14.35V264l-24.75-14.35Z"/><path class="cls-1" d="M648.83,250.84l23.74,13.77v27.53l-23.74,13.77-23.75-13.77V264.61l23.75-13.77m0-1.16L624.08,264v28.69l24.75,14.35,24.74-14.35V264l-24.74-14.35Z"/><path class="cls-1" d="M696.61,250.84l23.75,13.77v27.53l-23.75,13.77-23.74-13.77V264.61l23.74-13.77m0-1.16L671.87,264v28.69l24.74,14.35,24.75-14.35V264l-24.75-14.35Z"/><path class="cls-1" d="M744.55,250.84l23.75,13.77v27.53l-23.75,13.77-23.74-13.77V264.61l23.74-13.77m0-1.16L719.81,264v28.69l24.74,14.35,24.75-14.35V264l-24.75-14.35Z"/><path class="cls-1" d="M792.49,250.84l23.75,13.77v27.53l-23.75,13.77-23.74-13.77V264.61l23.74-13.77m0-1.16L767.75,264v28.69l24.74,14.35,24.75-14.35V264l-24.75-14.35Z"/><path class="cls-1" d="M840.43,250.84l23.75,13.77v27.53l-23.75,13.77-23.74-13.77V264.61l23.74-13.77m0-1.16L815.69,264v28.69l24.74,14.35,24.75-14.35V264l-24.75-14.35Z"/><path class="cls-1" d="M888.37,250.84l23.75,13.77v27.53l-23.75,13.77-23.74-13.77V264.61l23.74-13.77m0-1.16L863.63,264v28.69l24.74,14.35,24.75-14.35V264l-24.75-14.35Z"/><path class="cls-1" d="M49.58,292.47l23.74,13.76v27.54L49.58,347.53,25.83,333.77V306.23l23.75-13.76m0-1.16L24.83,305.65v28.7l24.75,14.34,24.74-14.34v-28.7L49.58,291.31Z"/><path class="cls-1" d="M97.52,292.47l23.74,13.76v27.54L97.52,347.53,73.77,333.77V306.23l23.75-13.76m0-1.16L72.77,305.65v28.7l24.75,14.34,24.74-14.34v-28.7L97.52,291.31Z"/><path class="cls-1" d="M145.46,292.47l23.74,13.76v27.54l-23.74,13.76-23.75-13.76V306.23l23.75-13.76m0-1.16-24.75,14.34v28.7l24.75,14.34,24.74-14.34v-28.7l-24.74-14.34Z"/><path class="cls-1" d="M193.4,292.47l23.74,13.76v27.54L193.4,347.53l-23.75-13.76V306.23l23.75-13.76m0-1.16-24.75,14.34v28.7l24.75,14.34,24.74-14.34v-28.7L193.4,291.31Z"/><path class="cls-1" d="M241.34,292.47l23.74,13.76v27.54l-23.74,13.76-23.75-13.76V306.23l23.75-13.76m0-1.16-24.75,14.34v28.7l24.75,14.34,24.74-14.34v-28.7l-24.74-14.34Z"/><path class="cls-1" d="M289.28,292.47,313,306.23v27.54l-23.74,13.76-23.75-13.76V306.23l23.75-13.76m0-1.16-24.75,14.34v28.7l24.75,14.34L314,334.35v-28.7l-24.74-14.34Z"/><path class="cls-1" d="M337.22,292.47,361,306.23v27.54l-23.74,13.76-23.75-13.76V306.23l23.75-13.76m0-1.16-24.75,14.34v28.7l24.75,14.34L362,334.35v-28.7l-24.74-14.34Z"/><path class="cls-1" d="M385.16,292.47l23.74,13.76v27.54l-23.74,13.76-23.75-13.76V306.23l23.75-13.76m0-1.16-24.75,14.34v28.7l24.75,14.34,24.74-14.34v-28.7l-24.74-14.34Z"/><path class="cls-1" d="M433.1,292.47l23.74,13.76v27.54L433.1,347.53l-23.75-13.76V306.23l23.75-13.76m0-1.16-24.75,14.34v28.7l24.75,14.34,24.74-14.34v-28.7L433.1,291.31Z"/><path class="cls-1" d="M481,292.47l23.74,13.76v27.54L481,347.53l-23.75-13.76V306.23L481,292.47m0-1.16-24.75,14.34v28.7L481,348.69l24.74-14.34v-28.7L481,291.31Z"/><path class="cls-1" d="M529,292.47l23.74,13.76v27.54L529,347.53l-23.75-13.76V306.23L529,292.47m0-1.16-24.75,14.34v28.7L529,348.69l24.74-14.34v-28.7L529,291.31Z"/><path class="cls-1" d="M576.92,292.47l23.74,13.76v27.54l-23.74,13.76-23.75-13.76V306.23l23.75-13.76m0-1.16-24.75,14.34v28.7l24.75,14.34,24.74-14.34v-28.7l-24.74-14.34Z"/><path class="cls-1" d="M624.86,292.47l23.74,13.76v27.54l-23.74,13.76-23.75-13.76V306.23l23.75-13.76m0-1.16-24.75,14.34v28.7l24.75,14.34,24.74-14.34v-28.7l-24.74-14.34Z"/><path class="cls-1" d="M672.8,292.47l23.74,13.76v27.54L672.8,347.53l-23.75-13.76V306.23l23.75-13.76m0-1.16-24.75,14.34v28.7l24.75,14.34,24.74-14.34v-28.7L672.8,291.31Z"/><path class="cls-1" d="M720.74,292.47l23.74,13.76v27.54l-23.74,13.76L697,333.77V306.23l23.75-13.76m0-1.16L696,305.65v28.7l24.75,14.34,24.74-14.34v-28.7l-24.74-14.34Z"/><path class="cls-1" d="M768.68,292.47l23.74,13.76v27.54l-23.74,13.76-23.75-13.76V306.23l23.75-13.76m0-1.16-24.75,14.34v28.7l24.75,14.34,24.74-14.34v-28.7l-24.74-14.34Z"/><path class="cls-1" d="M816.62,292.47l23.74,13.76v27.54l-23.74,13.76-23.75-13.76V306.23l23.75-13.76m0-1.16-24.75,14.34v28.7l24.75,14.34,24.74-14.34v-28.7l-24.74-14.34Z"/><path class="cls-1" d="M864.56,292.47l23.74,13.76v27.54l-23.74,13.76-23.75-13.76V306.23l23.75-13.76m0-1.16-24.75,14.34v28.7l24.75,14.34,24.74-14.34v-28.7l-24.74-14.34Z"/><path class="cls-1" d="M912.5,292.47l23.74,13.76v27.54L912.5,347.53l-23.75-13.76V306.23l23.75-13.76m0-1.16-24.75,14.34v28.7l24.75,14.34,24.74-14.34v-28.7L912.5,291.31Z"/><path class="cls-1" d="M25.61,334.09l23.74,13.77v27.53L25.61,389.16,1.86,375.39V347.86l23.75-13.77m0-1.16L.86,347.28V376l24.75,14.35L50.35,376V347.28L25.61,332.93Z"/><path class="cls-1" d="M73.55,334.09l23.74,13.77v27.53L73.55,389.16,49.8,375.39V347.86l23.75-13.77m0-1.16L48.8,347.28V376l24.75,14.35L98.29,376V347.28L73.55,332.93Z"/><path class="cls-1" d="M121.49,334.09l23.74,13.77v27.53l-23.74,13.77L97.74,375.39V347.86l23.75-13.77m0-1.16L96.74,347.28V376l24.75,14.35L146.23,376V347.28l-24.74-14.35Z"/><path class="cls-1" d="M169.43,334.09l23.74,13.77v27.53l-23.74,13.77-23.75-13.77V347.86l23.75-13.77m0-1.16-24.75,14.35V376l24.75,14.35L194.17,376V347.28l-24.74-14.35Z"/><path class="cls-1" d="M217.37,334.09l23.74,13.77v27.53l-23.74,13.77-23.75-13.77V347.86l23.75-13.77m0-1.16-24.75,14.35V376l24.75,14.35L242.11,376V347.28l-24.74-14.35Z"/><path class="cls-1" d="M265.15,334.09l23.75,13.77v27.53l-23.75,13.77-23.74-13.77V347.86l23.74-13.77m0-1.16-24.74,14.35V376l24.74,14.35L289.9,376V347.28l-24.75-14.35Z"/><path class="cls-1" d="M313.09,334.09l23.75,13.77v27.53l-23.75,13.77-23.74-13.77V347.86l23.74-13.77m0-1.16-24.74,14.35V376l24.74,14.35L337.84,376V347.28l-24.75-14.35Z"/><path class="cls-1" d="M361,334.09l23.75,13.77v27.53L361,389.16l-23.74-13.77V347.86L361,334.09m0-1.16-24.74,14.35V376L361,390.32,385.78,376V347.28L361,332.93Z"/><path class="cls-1" d="M409,334.09l23.75,13.77v27.53L409,389.16l-23.74-13.77V347.86L409,334.09m0-1.16-24.74,14.35V376L409,390.32,433.72,376V347.28L409,332.93Z"/><path class="cls-1" d="M456.91,334.09l23.75,13.77v27.53l-23.75,13.77-23.74-13.77V347.86l23.74-13.77m0-1.16-24.74,14.35V376l24.74,14.35L481.66,376V347.28l-24.75-14.35Z"/><path class="cls-1" d="M504.85,334.09l23.75,13.77v27.53l-23.75,13.77-23.74-13.77V347.86l23.74-13.77m0-1.16-24.74,14.35V376l24.74,14.35L529.6,376V347.28l-24.75-14.35Z"/><path class="cls-1" d="M552.79,334.09l23.75,13.77v27.53l-23.75,13.77-23.74-13.77V347.86l23.74-13.77m0-1.16-24.74,14.35V376l24.74,14.35L577.54,376V347.28l-24.75-14.35Z"/><path class="cls-1" d="M600.73,334.09l23.75,13.77v27.53l-23.75,13.77L577,375.39V347.86l23.74-13.77m0-1.16L576,347.28V376l24.74,14.35L625.48,376V347.28l-24.75-14.35Z"/><path class="cls-1" d="M648.83,334.09l23.74,13.77v27.53l-23.74,13.77-23.75-13.77V347.86l23.75-13.77m0-1.16-24.75,14.35V376l24.75,14.35L673.57,376V347.28l-24.74-14.35Z"/><path class="cls-1" d="M696.61,334.09l23.75,13.77v27.53l-23.75,13.77-23.74-13.77V347.86l23.74-13.77m0-1.16-24.74,14.35V376l24.74,14.35L721.36,376V347.28l-24.75-14.35Z"/><path class="cls-1" d="M744.55,334.09l23.75,13.77v27.53l-23.75,13.77-23.74-13.77V347.86l23.74-13.77m0-1.16-24.74,14.35V376l24.74,14.35L769.3,376V347.28l-24.75-14.35Z"/><path class="cls-1" d="M792.49,334.09l23.75,13.77v27.53l-23.75,13.77-23.74-13.77V347.86l23.74-13.77m0-1.16-24.74,14.35V376l24.74,14.35L817.24,376V347.28l-24.75-14.35Z"/><path class="cls-1" d="M840.43,334.09l23.75,13.77v27.53l-23.75,13.77-23.74-13.77V347.86l23.74-13.77m0-1.16-24.74,14.35V376l24.74,14.35L865.18,376V347.28l-24.75-14.35Z"/><path class="cls-1" d="M888.37,334.09l23.75,13.77v27.53l-23.75,13.77-23.74-13.77V347.86l23.74-13.77m0-1.16-24.74,14.35V376l24.74,14.35L913.12,376V347.28l-24.75-14.35Z"/><path class="cls-1" d="M49.58,375.71l23.74,13.77V417L49.58,430.78,25.83,417V389.48l23.75-13.77m0-1.15L24.83,388.9v28.69l24.75,14.35,24.74-14.35V388.9L49.58,374.56Z"/><path class="cls-1" d="M97.52,375.71l23.74,13.77V417L97.52,430.78,73.77,417V389.48l23.75-13.77m0-1.15L72.77,388.9v28.69l24.75,14.35,24.74-14.35V388.9L97.52,374.56Z"/><path class="cls-1" d="M145.46,375.71l23.74,13.77V417l-23.74,13.76L121.71,417V389.48l23.75-13.77m0-1.15L120.71,388.9v28.69l24.75,14.35,24.74-14.35V388.9l-24.74-14.34Z"/><path class="cls-1" d="M193.4,375.71l23.74,13.77V417L193.4,430.78,169.65,417V389.48l23.75-13.77m0-1.15L168.65,388.9v28.69l24.75,14.35,24.74-14.35V388.9L193.4,374.56Z"/><path class="cls-1" d="M241.34,375.71l23.74,13.77V417l-23.74,13.76L217.59,417V389.48l23.75-13.77m0-1.15L216.59,388.9v28.69l24.75,14.35,24.74-14.35V388.9l-24.74-14.34Z"/><path class="cls-1" d="M289.28,375.71,313,389.48V417l-23.74,13.76L265.53,417V389.48l23.75-13.77m0-1.15L264.53,388.9v28.69l24.75,14.35L314,417.59V388.9l-24.74-14.34Z"/><path class="cls-1" d="M337.22,375.71,361,389.48V417l-23.74,13.76L313.47,417V389.48l23.75-13.77m0-1.15L312.47,388.9v28.69l24.75,14.35L362,417.59V388.9l-24.74-14.34Z"/><path class="cls-1" d="M385.16,375.71l23.74,13.77V417l-23.74,13.76L361.41,417V389.48l23.75-13.77m0-1.15L360.41,388.9v28.69l24.75,14.35,24.74-14.35V388.9l-24.74-14.34Z"/><path class="cls-1" d="M433.1,375.71l23.74,13.77V417L433.1,430.78,409.35,417V389.48l23.75-13.77m0-1.15L408.35,388.9v28.69l24.75,14.35,24.74-14.35V388.9L433.1,374.56Z"/><path class="cls-1" d="M481,375.71l23.74,13.77V417L481,430.78,457.29,417V389.48L481,375.71m0-1.15L456.29,388.9v28.69L481,431.94l24.74-14.35V388.9L481,374.56Z"/><path class="cls-1" d="M529,375.71l23.74,13.77V417L529,430.78,505.23,417V389.48L529,375.71m0-1.15L504.23,388.9v28.69L529,431.94l24.74-14.35V388.9L529,374.56Z"/><path class="cls-1" d="M576.92,375.71l23.74,13.77V417l-23.74,13.76L553.17,417V389.48l23.75-13.77m0-1.15L552.17,388.9v28.69l24.75,14.35,24.74-14.35V388.9l-24.74-14.34Z"/><path class="cls-1" d="M624.86,375.71l23.74,13.77V417l-23.74,13.76L601.11,417V389.48l23.75-13.77m0-1.15L600.11,388.9v28.69l24.75,14.35,24.74-14.35V388.9l-24.74-14.34Z"/><path class="cls-1" d="M672.8,375.71l23.74,13.77V417L672.8,430.78,649.05,417V389.48l23.75-13.77m0-1.15L648.05,388.9v28.69l24.75,14.35,24.74-14.35V388.9L672.8,374.56Z"/><path class="cls-1" d="M720.74,375.71l23.74,13.77V417l-23.74,13.76L697,417V389.48l23.75-13.77m0-1.15L696,388.9v28.69l24.75,14.35,24.74-14.35V388.9l-24.74-14.34Z"/><path class="cls-1" d="M768.68,375.71l23.74,13.77V417l-23.74,13.76L744.93,417V389.48l23.75-13.77m0-1.15L743.93,388.9v28.69l24.75,14.35,24.74-14.35V388.9l-24.74-14.34Z"/><path class="cls-1" d="M816.62,375.71l23.74,13.77V417l-23.74,13.76L792.87,417V389.48l23.75-13.77m0-1.15L791.87,388.9v28.69l24.75,14.35,24.74-14.35V388.9l-24.74-14.34Z"/><path class="cls-1" d="M864.56,375.71l23.74,13.77V417l-23.74,13.76L840.81,417V389.48l23.75-13.77m0-1.15L839.81,388.9v28.69l24.75,14.35,24.74-14.35V388.9l-24.74-14.34Z"/><path class="cls-1" d="M25.61,417.28,49.35,431v27.54L25.61,472.35,1.86,458.58V431l23.75-13.76m0-1.16L.86,430.47v28.69L25.61,473.5l24.74-14.34V430.47L25.61,416.12Z"/><path class="cls-1" d="M73.55,417.28,97.29,431v27.54L73.55,472.35,49.8,458.58V431l23.75-13.76m0-1.16L48.8,430.47v28.69L73.55,473.5l24.74-14.34V430.47L73.55,416.12Z"/><path class="cls-1" d="M121.49,417.28,145.23,431v27.54l-23.74,13.77L97.74,458.58V431l23.75-13.76m0-1.16L96.74,430.47v28.69l24.75,14.34,24.74-14.34V430.47l-24.74-14.35Z"/><path class="cls-1" d="M169.43,417.28,193.17,431v27.54l-23.74,13.77-23.75-13.77V431l23.75-13.76m0-1.16-24.75,14.35v28.69l24.75,14.34,24.74-14.34V430.47l-24.74-14.35Z"/><path class="cls-1" d="M217.37,417.28,241.11,431v27.54l-23.74,13.77-23.75-13.77V431l23.75-13.76m0-1.16-24.75,14.35v28.69l24.75,14.34,24.74-14.34V430.47l-24.74-14.35Z"/><path class="cls-1" d="M265.15,417.28,288.9,431v27.54l-23.75,13.77-23.74-13.77V431l23.74-13.76m0-1.16-24.74,14.35v28.69l24.74,14.34,24.75-14.34V430.47l-24.75-14.35Z"/><path class="cls-1" d="M313.09,417.28,336.84,431v27.54l-23.75,13.77-23.74-13.77V431l23.74-13.76m0-1.16-24.74,14.35v28.69l24.74,14.34,24.75-14.34V430.47l-24.75-14.35Z"/><path class="cls-1" d="M361,417.28,384.78,431v27.54L361,472.35l-23.74-13.77V431L361,417.28m0-1.16-24.74,14.35v28.69L361,473.5l24.75-14.34V430.47L361,416.12Z"/><path class="cls-1" d="M409,417.28,432.72,431v27.54L409,472.35l-23.74-13.77V431L409,417.28m0-1.16-24.74,14.35v28.69L409,473.5l24.75-14.34V430.47L409,416.12Z"/><path class="cls-1" d="M456.91,417.28,480.66,431v27.54l-23.75,13.77-23.74-13.77V431l23.74-13.76m0-1.16-24.74,14.35v28.69l24.74,14.34,24.75-14.34V430.47l-24.75-14.35Z"/><path class="cls-1" d="M504.85,417.28,528.6,431v27.54l-23.75,13.77-23.74-13.77V431l23.74-13.76m0-1.16-24.74,14.35v28.69l24.74,14.34,24.75-14.34V430.47l-24.75-14.35Z"/><path class="cls-1" d="M552.79,417.28,576.54,431v27.54l-23.75,13.77-23.74-13.77V431l23.74-13.76m0-1.16-24.74,14.35v28.69l24.74,14.34,24.75-14.34V430.47l-24.75-14.35Z"/><path class="cls-1" d="M600.73,417.28,624.48,431v27.54l-23.75,13.77L577,458.58V431l23.74-13.76m0-1.16L576,430.47v28.69l24.74,14.34,24.75-14.34V430.47l-24.75-14.35Z"/><path class="cls-1" d="M648.83,417.28,672.57,431v27.54l-23.74,13.77-23.75-13.77V431l23.75-13.76m0-1.16-24.75,14.35v28.69l24.75,14.34,24.74-14.34V430.47l-24.74-14.35Z"/><path class="cls-1" d="M696.61,417.28,720.36,431v27.54l-23.75,13.77-23.74-13.77V431l23.74-13.76m0-1.16-24.74,14.35v28.69l24.74,14.34,24.75-14.34V430.47l-24.75-14.35Z"/><path class="cls-1" d="M744.55,417.28,768.3,431v27.54l-23.75,13.77-23.74-13.77V431l23.74-13.76m0-1.16-24.74,14.35v28.69l24.74,14.34,24.75-14.34V430.47l-24.75-14.35Z"/><path class="cls-1" d="M792.49,417.28,816.24,431v27.54l-23.75,13.77-23.74-13.77V431l23.74-13.76m0-1.16-24.74,14.35v28.69l24.74,14.34,24.75-14.34V430.47l-24.75-14.35Z"/><path class="cls-1" d="M840.43,417.28,864.18,431v27.54l-23.75,13.77-23.74-13.77V431l23.74-13.76m0-1.16-24.74,14.35v28.69l24.74,14.34,24.75-14.34V430.47l-24.75-14.35Z"/><path class="cls-1" d="M49.58,458.9l23.74,13.77V500.2L49.58,514,25.83,500.21V472.67L49.58,458.9m0-1.15L24.83,472.09v28.69l24.75,14.35,24.74-14.35V472.09L49.58,457.75Z"/><path class="cls-1" d="M97.52,458.9l23.74,13.77V500.2L97.52,514,73.77,500.21V472.67L97.52,458.9m0-1.15L72.77,472.09v28.69l24.75,14.35,24.74-14.35V472.09L97.52,457.75Z"/><path class="cls-1" d="M145.46,458.9l23.74,13.77V500.2L145.46,514l-23.75-13.76V472.67l23.75-13.77m0-1.15-24.75,14.34v28.69l24.75,14.35,24.74-14.35V472.09l-24.74-14.34Z"/><path class="cls-1" d="M193.4,458.9l23.74,13.77V500.2L193.4,514l-23.75-13.76V472.67L193.4,458.9m0-1.15-24.75,14.34v28.69l24.75,14.35,24.74-14.35V472.09L193.4,457.75Z"/><path class="cls-1" d="M241.34,458.9l23.74,13.77V500.2L241.34,514l-23.75-13.76V472.67l23.75-13.77m0-1.15-24.75,14.34v28.69l24.75,14.35,24.74-14.35V472.09l-24.74-14.34Z"/><path class="cls-1" d="M289.28,458.9,313,472.67V500.2L289.28,514l-23.75-13.76V472.67l23.75-13.77m0-1.15-24.75,14.34v28.69l24.75,14.35L314,500.78V472.09l-24.74-14.34Z"/><path class="cls-1" d="M337.22,458.9,361,472.67V500.2L337.22,514l-23.75-13.76V472.67l23.75-13.77m0-1.15-24.75,14.34v28.69l24.75,14.35L362,500.78V472.09l-24.74-14.34Z"/><path class="cls-1" d="M385.16,458.9l23.74,13.77V500.2L385.16,514l-23.75-13.76V472.67l23.75-13.77m0-1.15-24.75,14.34v28.69l24.75,14.35,24.74-14.35V472.09l-24.74-14.34Z"/><path class="cls-1" d="M433.1,458.9l23.74,13.77V500.2L433.1,514l-23.75-13.76V472.67L433.1,458.9m0-1.15-24.75,14.34v28.69l24.75,14.35,24.74-14.35V472.09L433.1,457.75Z"/><path class="cls-1" d="M481,458.9l23.74,13.77V500.2L481,514l-23.75-13.76V472.67L481,458.9m0-1.15-24.75,14.34v28.69L481,515.13l24.74-14.35V472.09L481,457.75Z"/><path class="cls-1" d="M529,458.9l23.74,13.77V500.2L529,514l-23.75-13.76V472.67L529,458.9m0-1.15-24.75,14.34v28.69L529,515.13l24.74-14.35V472.09L529,457.75Z"/><path class="cls-1" d="M576.92,458.9l23.74,13.77V500.2L576.92,514l-23.75-13.76V472.67l23.75-13.77m0-1.15-24.75,14.34v28.69l24.75,14.35,24.74-14.35V472.09l-24.74-14.34Z"/><path class="cls-1" d="M624.86,458.9l23.74,13.77V500.2L624.86,514l-23.75-13.76V472.67l23.75-13.77m0-1.15-24.75,14.34v28.69l24.75,14.35,24.74-14.35V472.09l-24.74-14.34Z"/><path class="cls-1" d="M672.8,458.9l23.74,13.77V500.2L672.8,514l-23.75-13.76V472.67L672.8,458.9m0-1.15-24.75,14.34v28.69l24.75,14.35,24.74-14.35V472.09L672.8,457.75Z"/><path class="cls-1" d="M720.74,458.9l23.74,13.77V500.2L720.74,514,697,500.21V472.67l23.75-13.77m0-1.15L696,472.09v28.69l24.75,14.35,24.74-14.35V472.09l-24.74-14.34Z"/><path class="cls-1" d="M768.68,458.9l23.74,13.77V500.2L768.68,514l-23.75-13.76V472.67l23.75-13.77m0-1.15-24.75,14.34v28.69l24.75,14.35,24.74-14.35V472.09l-24.74-14.34Z"/><path class="cls-1" d="M816.62,458.9l23.74,13.77V500.2L816.62,514l-23.75-13.76V472.67l23.75-13.77m0-1.15-24.75,14.34v28.69l24.75,14.35,24.74-14.35V472.09l-24.74-14.34Z"/><path class="cls-1" d="M25.61,500.53l23.74,13.76v27.54L25.61,555.6,1.86,541.83V514.29l23.75-13.76m0-1.16L.86,513.72v28.69l24.75,14.34,24.74-14.34V513.72L25.61,499.37Z"/><path class="cls-1" d="M73.55,500.53l23.74,13.76v27.54L73.55,555.6,49.8,541.83V514.29l23.75-13.76m0-1.16L48.8,513.72v28.69l24.75,14.34,24.74-14.34V513.72L73.55,499.37Z"/><path class="cls-1" d="M121.49,500.53l23.74,13.76v27.54L121.49,555.6,97.74,541.83V514.29l23.75-13.76m0-1.16L96.74,513.72v28.69l24.75,14.34,24.74-14.34V513.72l-24.74-14.35Z"/><path class="cls-1" d="M169.43,500.53l23.74,13.76v27.54L169.43,555.6l-23.75-13.77V514.29l23.75-13.76m0-1.16-24.75,14.35v28.69l24.75,14.34,24.74-14.34V513.72l-24.74-14.35Z"/><path class="cls-1" d="M217.37,500.53l23.74,13.76v27.54L217.37,555.6l-23.75-13.77V514.29l23.75-13.76m0-1.16-24.75,14.35v28.69l24.75,14.34,24.74-14.34V513.72l-24.74-14.35Z"/><path class="cls-1" d="M265.15,500.53l23.75,13.76v27.54L265.15,555.6l-23.74-13.77V514.29l23.74-13.76m0-1.16-24.74,14.35v28.69l24.74,14.34,24.75-14.34V513.72l-24.75-14.35Z"/><path class="cls-1" d="M313.09,500.53l23.75,13.76v27.54L313.09,555.6l-23.74-13.77V514.29l23.74-13.76m0-1.16-24.74,14.35v28.69l24.74,14.34,24.75-14.34V513.72l-24.75-14.35Z"/><path class="cls-1" d="M361,500.53l23.75,13.76v27.54L361,555.6l-23.74-13.77V514.29L361,500.53m0-1.16-24.74,14.35v28.69L361,556.75l24.75-14.34V513.72L361,499.37Z"/><path class="cls-1" d="M409,500.53l23.75,13.76v27.54L409,555.6l-23.74-13.77V514.29L409,500.53m0-1.16-24.74,14.35v28.69L409,556.75l24.75-14.34V513.72L409,499.37Z"/><path class="cls-1" d="M456.91,500.53l23.75,13.76v27.54L456.91,555.6l-23.74-13.77V514.29l23.74-13.76m0-1.16-24.74,14.35v28.69l24.74,14.34,24.75-14.34V513.72l-24.75-14.35Z"/><path class="cls-1" d="M504.85,500.53l23.75,13.76v27.54L504.85,555.6l-23.74-13.77V514.29l23.74-13.76m0-1.16-24.74,14.35v28.69l24.74,14.34,24.75-14.34V513.72l-24.75-14.35Z"/><path class="cls-1" d="M552.79,500.53l23.75,13.76v27.54L552.79,555.6l-23.74-13.77V514.29l23.74-13.76m0-1.16-24.74,14.35v28.69l24.74,14.34,24.75-14.34V513.72l-24.75-14.35Z"/><path class="cls-1" d="M600.73,500.53l23.75,13.76v27.54L600.73,555.6,577,541.83V514.29l23.74-13.76m0-1.16L576,513.72v28.69l24.74,14.34,24.75-14.34V513.72l-24.75-14.35Z"/><path class="cls-1" d="M648.83,500.53l23.74,13.76v27.54L648.83,555.6l-23.75-13.77V514.29l23.75-13.76m0-1.16-24.75,14.35v28.69l24.75,14.34,24.74-14.34V513.72l-24.74-14.35Z"/><path class="cls-1" d="M696.61,500.53l23.75,13.76v27.54L696.61,555.6l-23.74-13.77V514.29l23.74-13.76m0-1.16-24.74,14.35v28.69l24.74,14.34,24.75-14.34V513.72l-24.75-14.35Z"/><path class="cls-1" d="M744.55,500.53l23.75,13.76v27.54L744.55,555.6l-23.74-13.77V514.29l23.74-13.76m0-1.16-24.74,14.35v28.69l24.74,14.34,24.75-14.34V513.72l-24.75-14.35Z"/><path class="cls-1" d="M792.49,500.53l23.75,13.76v27.54L792.49,555.6l-23.74-13.77V514.29l23.74-13.76m0-1.16-24.74,14.35v28.69l24.74,14.34,24.75-14.34V513.72l-24.75-14.35Z"/><path class="cls-1" d="M49.58,542.15l23.74,13.77v27.53L49.58,597.22,25.83,583.45V555.92l23.75-13.77m0-1.16L24.83,555.34V584l24.75,14.35L74.32,584V555.34L49.58,541Z"/><path class="cls-1" d="M97.52,542.15l23.74,13.77v27.53L97.52,597.22,73.77,583.45V555.92l23.75-13.77m0-1.16L72.77,555.34V584l24.75,14.35L122.26,584V555.34L97.52,541Z"/><path class="cls-1" d="M145.46,542.15l23.74,13.77v27.53l-23.74,13.77-23.75-13.77V555.92l23.75-13.77m0-1.16-24.75,14.35V584l24.75,14.35L170.2,584V555.34L145.46,541Z"/><path class="cls-1" d="M193.4,542.15l23.74,13.77v27.53L193.4,597.22l-23.75-13.77V555.92l23.75-13.77m0-1.16-24.75,14.35V584l24.75,14.35L218.14,584V555.34L193.4,541Z"/><path class="cls-1" d="M241.34,542.15l23.74,13.77v27.53l-23.74,13.77-23.75-13.77V555.92l23.75-13.77m0-1.16-24.75,14.35V584l24.75,14.35L266.08,584V555.34L241.34,541Z"/><path class="cls-1" d="M289.28,542.15,313,555.92v27.53l-23.74,13.77-23.75-13.77V555.92l23.75-13.77m0-1.16-24.75,14.35V584l24.75,14.35L314,584V555.34L289.28,541Z"/><path class="cls-1" d="M337.22,542.15,361,555.92v27.53l-23.74,13.77-23.75-13.77V555.92l23.75-13.77m0-1.16-24.75,14.35V584l24.75,14.35L362,584V555.34L337.22,541Z"/><path class="cls-1" d="M385.16,542.15l23.74,13.77v27.53l-23.74,13.77-23.75-13.77V555.92l23.75-13.77m0-1.16-24.75,14.35V584l24.75,14.35L409.9,584V555.34L385.16,541Z"/><path class="cls-1" d="M433.1,542.15l23.74,13.77v27.53L433.1,597.22l-23.75-13.77V555.92l23.75-13.77m0-1.16-24.75,14.35V584l24.75,14.35L457.84,584V555.34L433.1,541Z"/><path class="cls-1" d="M481,542.15l23.74,13.77v27.53L481,597.22l-23.75-13.77V555.92L481,542.15m0-1.16-24.75,14.35V584L481,598.38,505.78,584V555.34L481,541Z"/><path class="cls-1" d="M529,542.15l23.74,13.77v27.53L529,597.22l-23.75-13.77V555.92L529,542.15m0-1.16-24.75,14.35V584L529,598.38,553.72,584V555.34L529,541Z"/><path class="cls-1" d="M576.92,542.15l23.74,13.77v27.53l-23.74,13.77-23.75-13.77V555.92l23.75-13.77m0-1.16-24.75,14.35V584l24.75,14.35L601.66,584V555.34L576.92,541Z"/><path class="cls-1" d="M624.86,542.15l23.74,13.77v27.53l-23.74,13.77-23.75-13.77V555.92l23.75-13.77m0-1.16-24.75,14.35V584l24.75,14.35L649.6,584V555.34L624.86,541Z"/><path class="cls-1" d="M672.8,542.15l23.74,13.77v27.53L672.8,597.22l-23.75-13.77V555.92l23.75-13.77m0-1.16-24.75,14.35V584l24.75,14.35L697.54,584V555.34L672.8,541Z"/><path class="cls-1" d="M720.74,542.15l23.74,13.77v27.53l-23.74,13.77L697,583.45V555.92l23.75-13.77m0-1.16L696,555.34V584l24.75,14.35L745.48,584V555.34L720.74,541Z"/><path class="cls-1" d="M768.68,542.15l23.74,13.77v27.53l-23.74,13.77-23.75-13.77V555.92l23.75-13.77m0-1.16-24.75,14.35V584l24.75,14.35L793.42,584V555.34L768.68,541Z"/><path class="cls-1" d="M25.61,583.77l23.74,13.77v27.54L25.61,638.84,1.86,625.08V597.54l23.75-13.77m0-1.15L.86,597v28.69L25.61,640l24.74-14.35V597L25.61,582.62Z"/><path class="cls-1" d="M73.55,583.77l23.74,13.77v27.54L73.55,638.84,49.8,625.08V597.54l23.75-13.77m0-1.15L48.8,597v28.69L73.55,640l24.74-14.35V597L73.55,582.62Z"/><path class="cls-1" d="M121.49,583.77l23.74,13.77v27.54l-23.74,13.76L97.74,625.08V597.54l23.75-13.77m0-1.15L96.74,597v28.69L121.49,640l24.74-14.35V597l-24.74-14.34Z"/><path class="cls-1" d="M169.43,583.77l23.74,13.77v27.54l-23.74,13.76-23.75-13.76V597.54l23.75-13.77m0-1.15L144.68,597v28.69L169.43,640l24.74-14.35V597l-24.74-14.34Z"/><path class="cls-1" d="M217.37,583.77l23.74,13.77v27.54l-23.74,13.76-23.75-13.76V597.54l23.75-13.77m0-1.15L192.62,597v28.69L217.37,640l24.74-14.35V597l-24.74-14.34Z"/><path class="cls-1" d="M265.15,583.77l23.75,13.77v27.54l-23.75,13.76-23.74-13.76V597.54l23.74-13.77m0-1.15L240.41,597v28.69L265.15,640l24.75-14.35V597l-24.75-14.34Z"/><path class="cls-1" d="M313.09,583.77l23.75,13.77v27.54l-23.75,13.76-23.74-13.76V597.54l23.74-13.77m0-1.15L288.35,597v28.69L313.09,640l24.75-14.35V597l-24.75-14.34Z"/><path class="cls-1" d="M361,583.77l23.75,13.77v27.54L361,638.84l-23.74-13.76V597.54L361,583.77m0-1.15L336.29,597v28.69L361,640l24.75-14.35V597L361,582.62Z"/><path class="cls-1" d="M409,583.77l23.75,13.77v27.54L409,638.84l-23.74-13.76V597.54L409,583.77m0-1.15L384.23,597v28.69L409,640l24.75-14.35V597L409,582.62Z"/><path class="cls-1" d="M456.91,583.77l23.75,13.77v27.54l-23.75,13.76-23.74-13.76V597.54l23.74-13.77m0-1.15L432.17,597v28.69L456.91,640l24.75-14.35V597l-24.75-14.34Z"/><path class="cls-1" d="M504.85,583.77l23.75,13.77v27.54l-23.75,13.76-23.74-13.76V597.54l23.74-13.77m0-1.15L480.11,597v28.69L504.85,640l24.75-14.35V597l-24.75-14.34Z"/><path class="cls-1" d="M552.79,583.77l23.75,13.77v27.54l-23.75,13.76-23.74-13.76V597.54l23.74-13.77m0-1.15L528.05,597v28.69L552.79,640l24.75-14.35V597l-24.75-14.34Z"/><path class="cls-1" d="M600.73,583.77l23.75,13.77v27.54l-23.75,13.76L577,625.08V597.54l23.74-13.77m0-1.15L576,597v28.69L600.73,640l24.75-14.35V597l-24.75-14.34Z"/><path class="cls-1" d="M648.83,583.77l23.74,13.77v27.54l-23.74,13.76-23.75-13.76V597.54l23.75-13.77m0-1.15L624.08,597v28.69L648.83,640l24.74-14.35V597l-24.74-14.34Z"/><path class="cls-1" d="M696.61,583.77l23.75,13.77v27.54l-23.75,13.76-23.74-13.76V597.54l23.74-13.77m0-1.15L671.87,597v28.69L696.61,640l24.75-14.35V597l-24.75-14.34Z"/><path class="cls-1" d="M744.55,583.77l23.75,13.77v27.54l-23.75,13.76-23.74-13.76V597.54l23.74-13.77m0-1.15L719.81,597v28.69L744.55,640l24.75-14.35V597l-24.75-14.34Z"/></g><g id="Logo"><polygon class="cls-13" points="607.65 233.74 458.09 147.39 308.53 233.74 308.53 406.43 458.09 492.78 607.65 406.43 607.65 233.74"/><polygon class="cls-14" points="457.58 320.25 308.06 233.92 457.69 147.42 457.58 320.25"/><path class="cls-15" d="M457.53,493S308,406.42,307.86,406.58s149.65-86.37,149.65-86.37Z"/><polygon class="cls-15" points="607.11 406.59 457.58 320.25 607.21 233.75 607.11 406.59"/><polygon class="cls-16" points="457.58 320.25 457.62 147.6 607.33 233.96 457.58 320.25"/><polygon class="cls-16" points="307.84 406.55 307.87 233.89 457.58 320.25 307.84 406.55"/><polygon class="cls-17" points="457.55 492.91 457.58 320.25 607.29 406.61 457.55 492.91"/><path class="cls-7" d="M457.58,320.25"/><rect class="cls-7" x="446.41" y="271.89" width="23.19" height="96.48"/><rect class="cls-7" x="440.98" y="261.6" width="34.05" height="10.61"/><rect class="cls-7" x="435.54" y="251.31" width="44.92" height="10.61"/><rect class="cls-7" x="440.98" y="368.06" width="34.05" height="10.61"/><rect class="cls-7" x="435.18" y="378.35" width="44.92" height="10.61"/><rect class="cls-7" x="391.71" y="271.89" width="23.19" height="96.48"/><rect class="cls-7" x="386.28" y="261.6" width="34.05" height="10.61"/><rect class="cls-7" x="380.84" y="251.31" width="44.92" height="10.61"/><rect class="cls-7" x="386.28" y="368.06" width="34.05" height="10.61"/><rect class="cls-7" x="380.48" y="378.35" width="44.92" height="10.61"/><rect class="cls-7" x="500.75" y="271.89" width="23.19" height="96.48"/><rect class="cls-7" x="495.32" y="261.6" width="34.05" height="10.61"/><rect class="cls-7" x="489.89" y="251.31" width="44.92" height="10.61"/><rect class="cls-7" x="495.32" y="368.06" width="34.05" height="10.61"/><rect class="cls-7" x="489.52" y="378.35" width="44.92" height="10.61"/><rect class="cls-7" x="358.78" y="241.06" width="197.69" height="6.84"/><rect class="cls-7" x="364.26" y="392.35" width="186.53" height="6.84"/><rect class="cls-7" x="357.65" y="402.59" width="199.75" height="28.27"/><polygon class="cls-7" points="358.78 237.63 556.39 237.63 457.58 190.42 358.78 237.63"/></g></svg>