<svg xmlns="http://www.w3.org/2000/svg" viewBox="0 0 1920 512"><defs><style>.cls-1{fill:#2c3e50;}.cls-2{fill:#e74c3c;}.cls-3{fill:#e04535;}.cls-4{fill:#c92e1e;}.cls-5{fill:#d83d2d;}.cls-6{fill:#ba1f0f;}.cls-14,.cls-7,.cls-9{fill:#fff;}.cls-8{fill:#1067a0;}.cls-9{font-size:72px;font-family:Roboto-Bold, Roboto;font-weight:700;}.cls-10{letter-spacing:-0.01em;}.cls-11{letter-spacing:-0.01em;}.cls-12{letter-spacing:-0.01em;}.cls-13{fill:#34495e;}.cls-14{font-size:28px;font-family:Roboto-Regular, Roboto;}.cls-15{letter-spacing:-0.01em;}.cls-16{letter-spacing:-0.01em;}.cls-17{letter-spacing:-0.01em;}</style></defs><title>main-image</title><g id="Background"><rect class="cls-1" width="1920" height="512"/></g><g id="Logo"><polygon class="cls-2" points="527.54 196.75 422.99 136.39 318.43 196.75 318.43 317.48 422.99 377.85 527.54 317.48 527.54 196.75"/><polygon class="cls-3" points="422.63 257.24 318.1 196.88 422.7 136.41 422.63 257.24"/><path class="cls-4" d="M422.59,378S318,317.47,318,317.59s104.62-60.38,104.62-60.38Z"/><polygon class="cls-4" points="527.16 317.59 422.63 257.24 527.23 196.77 527.16 317.59"/><polygon class="cls-5" points="422.63 257.24 422.66 136.53 527.32 196.91 422.63 257.24"/><polygon class="cls-5" points="317.95 317.56 317.97 196.86 422.63 257.24 317.95 317.56"/><polygon class="cls-6" points="422.61 377.94 422.63 257.24 527.29 317.61 422.61 377.94"/><path class="cls-7" d="M422.63,257.24"/><rect class="cls-7" x="414.82" y="223.43" width="16.21" height="67.45"/><rect class="cls-7" x="411.02" y="216.23" width="23.81" height="7.41"/><rect class="cls-7" x="407.22" y="209.04" width="31.4" height="7.41"/><rect class="cls-7" x="411.02" y="290.66" width="23.81" height="7.41"/><rect class="cls-7" x="406.97" y="297.85" width="31.4" height="7.41"/><rect class="cls-7" x="376.58" y="223.43" width="16.21" height="67.45"/><rect class="cls-7" x="372.78" y="216.23" width="23.81" height="7.41"/><rect class="cls-7" x="368.98" y="209.04" width="31.4" height="7.41"/><rect class="cls-7" x="372.78" y="290.66" width="23.81" height="7.41"/><rect class="cls-7" x="368.73" y="297.85" width="31.4" height="7.41"/><rect class="cls-7" x="452.81" y="223.43" width="16.21" height="67.45"/><rect class="cls-7" x="449.01" y="216.23" width="23.81" height="7.41"/><rect class="cls-7" x="445.21" y="209.04" width="31.4" height="7.41"/><rect class="cls-7" x="449.01" y="290.66" width="23.81" height="7.41"/><rect class="cls-7" x="444.96" y="297.85" width="31.4" height="7.41"/><rect class="cls-7" x="353.56" y="201.87" width="138.2" height="4.78"/><rect class="cls-7" x="357.39" y="307.64" width="130.4" height="4.78"/><rect class="cls-7" x="352.77" y="314.8" width="139.64" height="19.76"/><polygon class="cls-7" points="353.56 199.48 491.7 199.48 422.63 166.47 353.56 199.48"/></g><g id="Additions"><polygon class="cls-8" points="421.54 379.75 316.99 319.39 212.43 379.75 212.43 500.48 232.38 512 401.59 512 421.54 500.48 421.54 379.75"/><polygon class="cls-8" points="106.43 196.75 106.43 317.48 210.99 377.85 315.54 317.48 315.54 196.75 210.99 136.39 106.43 196.75"/><polygon class="cls-8" points="212.43 134.48 316.99 194.85 421.54 134.48 421.54 13.75 397.71 0 236.25 0 212.43 13.75 212.43 134.48"/><polygon class="cls-8" points="209.54 379.75 104.98 319.39 0.43 379.75 0.43 500.48 20.38 512 189.59 512 209.54 500.48 209.54 379.75"/><polygon class="cls-8" points="103.54 196.75 0 136.98 0 377.26 103.54 317.48 103.54 196.75"/><polygon class="cls-8" points="0.43 134.48 104.98 194.85 209.54 134.48 209.54 13.75 185.72 0 24.25 0 0.43 13.75 0.43 134.48"/><polygon class="cls-8" points="196.07 512 225.9 512 210.99 503.39 196.07 512"/><polygon class="cls-8" points="0 512 13.9 512 0 503.98 0 512"/><polygon class="cls-8" points="845.54 379.75 740.99 319.39 636.43 379.75 636.43 500.48 656.38 512 825.59 512 845.54 500.48 845.54 379.75"/><polygon class="cls-8" points="633.54 379.75 528.99 319.39 424.43 379.75 424.43 500.48 444.38 512 613.59 512 633.54 500.48 633.54 379.75"/><polygon class="cls-8" points="620.07 512 649.9 512 634.99 503.39 620.07 512"/><polygon class="cls-8" points="408.07 512 437.9 512 422.99 503.39 408.07 512"/><polygon class="cls-8" points="424.43 134.48 528.99 194.85 633.54 134.48 633.54 13.75 609.72 0 448.25 0 424.43 13.75 424.43 134.48"/><polygon class="cls-8" points="229.77 0 192.2 0 210.99 10.85 229.77 0"/><polygon class="cls-8" points="0 0 0 10.26 17.77 0 0 0"/><polygon class="cls-8" points="653.77 0 616.2 0 634.99 10.85 653.77 0"/><polygon class="cls-8" points="441.77 0 404.2 0 422.99 10.85 441.77 0"/><polygon class="cls-8" points="530.43 196.75 530.43 317.48 634.99 377.85 739.54 317.48 739.54 196.75 634.99 136.39 530.43 196.75"/><polygon class="cls-8" points="636.43 134.48 740.99 194.85 845.54 134.48 845.54 13.75 821.72 0 660.25 0 636.43 13.75 636.43 134.48"/></g><g id="Text"><text class="cls-9" transform="translate(903 195.64) scale(1.04 1)"><tspan class="cls-10">E</tspan><tspan x="39.38" y="0">du</tspan><tspan class="cls-11" x="120.66" y="0">F</tspan><tspan x="159.96" y="0">o</tspan><tspan class="cls-12" x="200.6" y="0">r</tspan><tspan x="225.28" y="0">ge</tspan></text><rect class="cls-7" x="905" y="235" width="3" height="158"/><rect class="cls-13" x="908" y="235" width="496" height="158"/><text class="cls-14" transform="translate(923 288.33)">Надійний <tspan class="cls-15" x="130.5" y="0">т</tspan><tspan x="144.61" y="0">а з</tspan><tspan class="cls-16" x="182.04" y="0">р</tspan><tspan x="197.8" y="0">учний засіб для </tspan><tspan x="0" y="33.6">збере</tspan><tspan class="cls-17" x="75.8" y="33.6">ж</tspan><tspan x="95.66" y="33.6">ення дипломів, курсових </tspan><tspan class="cls-15" x="431.06" y="33.6">т</tspan><tspan x="445.17" y="33.6">а </tspan><tspan x="0" y="67.2">інших документів.</tspan></text></g></svg>