<svg xmlns="http://www.w3.org/2000/svg" width="1920" height="512" viewBox="0 0 1920 512"><defs><style>.cls-1{fill:#185e89;}.cls-2{fill:#00a8fc;}.cls-3{font-size:72px;font-family:Roboto-Bold, Roboto;font-weight:700;letter-spacing:-0.01em;}.cls-10,.cls-3,.cls-8{fill:#fff;}.cls-4{letter-spacing:0em;}.cls-5{letter-spacing:-0.01em;}.cls-6{letter-spacing:0em;}.cls-7{letter-spacing:-0.01em;}.cls-9{fill:#0b6896;}.cls-10{font-size:28px;font-family:Roboto-Regular, Roboto;}.cls-11{letter-spacing:-0.01em;}.cls-12{letter-spacing:-0.01em;}.cls-13{letter-spacing:-0.01em;}.cls-14{fill:#e74c3c;}.cls-15{fill:#e04535;}.cls-16{fill:#c92e1e;}.cls-17{fill:#d83d2d;}.cls-18{fill:#ba1f0f;}</style></defs><title>main-image3</title><g id="Background"><rect class="cls-1" width="1920" height="512"/><polygon class="cls-2" points="748 512 0 512 0 0 748 0 902 256 748 512"/><polygon class="cls-2" points="807 512 961 256 807 0 776 0 930 256 776 512 807 512"/></g><g id="Additions"><path class="cls-1" d="M20.25,1.16,39.1,12.05v21.8L20.25,44.75,1.4,33.85V12.05L20.25,1.16m0-1.16L.4,11.48v23L20.25,45.9,40.1,34.43V11.48L20.25,0Z"/><path class="cls-1" d="M58.71,1.16,77.56,12.05v21.8L58.71,44.75,39.86,33.85V12.05L58.71,1.16m0-1.16L38.86,11.48v23L58.71,45.9,78.56,34.43V11.48L58.71,0Z"/><path class="cls-1" d="M97.17,1.16,116,12.05v21.8L97.17,44.75,78.32,33.85V12.05L97.17,1.16m0-1.16L77.32,11.48v23L97.17,45.9,117,34.43V11.48L97.17,0Z"/><path class="cls-1" d="M135.63,1.16l18.85,10.89v21.8l-18.85,10.9-18.85-10.9V12.05L135.63,1.16m0-1.16L115.78,11.48v23L135.63,45.9l19.85-11.47V11.48L135.63,0Z"/><path class="cls-1" d="M174.09,1.16l18.85,10.89v21.8l-18.85,10.9-18.85-10.9V12.05L174.09,1.16m0-1.16L154.24,11.48v23L174.09,45.9l19.85-11.47V11.48L174.09,0Z"/><path class="cls-1" d="M212.43,1.16l18.85,10.89v21.8l-18.85,10.9-18.85-10.9V12.05L212.43,1.16m0-1.16L192.58,11.48v23L212.43,45.9l19.85-11.47V11.48L212.43,0Z"/><path class="cls-1" d="M250.89,1.16l18.85,10.89v21.8l-18.85,10.9L232,33.85V12.05L250.89,1.16m0-1.16L231,11.48v23L250.89,45.9l19.85-11.47V11.48L250.89,0Z"/><path class="cls-1" d="M289.35,1.16,308.2,12.05v21.8l-18.85,10.9L270.5,33.85V12.05L289.35,1.16m0-1.16L269.5,11.48v23L289.35,45.9,309.2,34.43V11.48L289.35,0Z"/><path class="cls-1" d="M327.81,1.16l18.85,10.89v21.8l-18.85,10.9L309,33.85V12.05L327.81,1.16m0-1.16L308,11.48v23L327.81,45.9l19.85-11.47V11.48L327.81,0Z"/><path class="cls-1" d="M366.27,1.16l18.85,10.89v21.8l-18.85,10.9-18.85-10.9V12.05L366.27,1.16m0-1.16L346.42,11.48v23L366.27,45.9l19.85-11.47V11.48L366.27,0Z"/><path class="cls-1" d="M404.73,1.16l18.85,10.89v21.8l-18.85,10.9-18.85-10.9V12.05L404.73,1.16m0-1.16L384.88,11.48v23L404.73,45.9l19.85-11.47V11.48L404.73,0Z"/><path class="cls-1" d="M443.19,1.16,462,12.05v21.8l-18.85,10.9-18.85-10.9V12.05L443.19,1.16m0-1.16L423.34,11.48v23L443.19,45.9,463,34.43V11.48L443.19,0Z"/><path class="cls-1" d="M481.65,1.16,500.5,12.05v21.8l-18.85,10.9L462.8,33.85V12.05L481.65,1.16m0-1.16L461.8,11.48v23L481.65,45.9,501.5,34.43V11.48L481.65,0Z"/><path class="cls-1" d="M520.24,1.16l18.85,10.89v21.8l-18.85,10.9-18.85-10.9V12.05L520.24,1.16m0-1.16L500.39,11.48v23L520.24,45.9l19.85-11.47V11.48L520.24,0Z"/><path class="cls-1" d="M558.58,1.16l18.85,10.89v21.8l-18.85,10.9-18.86-10.9V12.05L558.58,1.16m0-1.16L538.72,11.48v23L558.58,45.9l19.85-11.47V11.48L558.58,0Z"/><path class="cls-1" d="M597,1.16l18.85,10.89v21.8L597,44.75l-18.85-10.9V12.05L597,1.16M597,0,577.19,11.48v23L597,45.9l19.85-11.47V11.48L597,0Z"/><path class="cls-1" d="M635.5,1.16l18.85,10.89v21.8L635.5,44.75l-18.85-10.9V12.05L635.5,1.16m0-1.16L615.65,11.48v23L635.5,45.9l19.85-11.47V11.48L635.5,0Z"/><path class="cls-1" d="M674,1.16l18.85,10.89v21.8L674,44.75l-18.85-10.9V12.05L674,1.16M674,0,654.11,11.48v23L674,45.9l19.85-11.47V11.48L674,0Z"/><path class="cls-1" d="M712.42,1.16l18.85,10.89v21.8l-18.85,10.9-18.85-10.9V12.05L712.42,1.16m0-1.16L692.57,11.48v23L712.42,45.9l19.85-11.47V11.48L712.42,0Z"/><path class="cls-1" d="M750.88,1.16l18.85,10.89v21.8l-18.85,10.9L732,33.85V12.05L750.88,1.16m0-1.16L731,11.48v23L750.88,45.9l19.85-11.47V11.48L750.88,0Z"/><path class="cls-1" d="M39.48,34.45l18.85,10.9v21.8L39.48,78.05,20.63,67.15V45.35l18.85-10.9m0-1.15L19.63,44.78v23L39.48,79.2,59.33,67.73v-23L39.48,33.3Z"/><path class="cls-1" d="M77.94,34.45l18.85,10.9v21.8L77.94,78.05,59.09,67.15V45.35l18.85-10.9m0-1.15L58.09,44.78v23L77.94,79.2,97.79,67.73v-23L77.94,33.3Z"/><path class="cls-1" d="M116.4,34.45l18.85,10.9v21.8L116.4,78.05,97.55,67.15V45.35l18.85-10.9m0-1.15L96.55,44.78v23L116.4,79.2l19.85-11.47v-23L116.4,33.3Z"/><path class="cls-1" d="M154.86,34.45l18.85,10.9v21.8l-18.85,10.9L136,67.15V45.35l18.85-10.9m0-1.15L135,44.78v23L154.86,79.2l19.85-11.47v-23L154.86,33.3Z"/><path class="cls-1" d="M193.32,34.45l18.85,10.9v21.8l-18.85,10.9-18.85-10.9V45.35l18.85-10.9m0-1.15L173.47,44.78v23L193.32,79.2l19.85-11.47v-23L193.32,33.3Z"/><path class="cls-1" d="M231.78,34.45l18.85,10.9v21.8l-18.85,10.9-18.85-10.9V45.35l18.85-10.9m0-1.15L211.93,44.78v23L231.78,79.2l19.85-11.47v-23L231.78,33.3Z"/><path class="cls-1" d="M270.24,34.45l18.85,10.9v21.8l-18.85,10.9-18.85-10.9V45.35l18.85-10.9m0-1.15L250.39,44.78v23L270.24,79.2l19.85-11.47v-23L270.24,33.3Z"/><path class="cls-1" d="M308.7,34.45l18.86,10.9v21.8L308.7,78.05l-18.85-10.9V45.35l18.85-10.9m0-1.15L288.85,44.78v23L308.7,79.2l19.85-11.47v-23L308.7,33.3Z"/><path class="cls-1" d="M347.17,34.45,366,45.35v21.8l-18.85,10.9-18.86-10.9V45.35l18.86-10.9m0-1.15L327.31,44.78v23L347.17,79.2,367,67.73v-23L347.17,33.3Z"/><path class="cls-1" d="M385.63,34.45l18.85,10.9v21.8l-18.85,10.9-18.85-10.9V45.35l18.85-10.9m0-1.15L365.78,44.78v23L385.63,79.2l19.85-11.47v-23L385.63,33.3Z"/><path class="cls-1" d="M424.09,34.45l18.85,10.9v21.8l-18.85,10.9-18.85-10.9V45.35l18.85-10.9m0-1.15L404.24,44.78v23L424.09,79.2l19.85-11.47v-23L424.09,33.3Z"/><path class="cls-1" d="M462.55,34.45l18.85,10.9v21.8l-18.85,10.9L443.7,67.15V45.35l18.85-10.9m0-1.15L442.7,44.78v23L462.55,79.2,482.4,67.73v-23L462.55,33.3Z"/><path class="cls-1" d="M501,34.45l18.85,10.9v21.8L501,78.05l-18.85-10.9V45.35L501,34.45m0-1.15L481.16,44.78v23L501,79.2l19.85-11.47v-23L501,33.3Z"/><path class="cls-1" d="M539.47,34.45l18.85,10.9v21.8l-18.85,10.9-18.85-10.9V45.35l18.85-10.9m0-1.15L519.62,44.78v23L539.47,79.2l19.85-11.47v-23L539.47,33.3Z"/><path class="cls-1" d="M577.93,34.45l18.85,10.9v21.8l-18.85,10.9-18.85-10.9V45.35l18.85-10.9m0-1.15L558.08,44.78v23L577.93,79.2l19.85-11.47v-23L577.93,33.3Z"/><path class="cls-1" d="M616.39,34.45l18.85,10.9v21.8l-18.85,10.9-18.85-10.9V45.35l18.85-10.9m0-1.15L596.54,44.78v23L616.39,79.2l19.85-11.47v-23L616.39,33.3Z"/><path class="cls-1" d="M654.85,34.45l18.85,10.9v21.8l-18.85,10.9L636,67.15V45.35l18.85-10.9m0-1.15L635,44.78v23L654.85,79.2,674.7,67.73v-23L654.85,33.3Z"/><path class="cls-1" d="M693.31,34.45l18.85,10.9v21.8l-18.85,10.9-18.85-10.9V45.35l18.85-10.9m0-1.15L673.46,44.78v23L693.31,79.2l19.85-11.47v-23L693.31,33.3Z"/><path class="cls-1" d="M731.77,34.45l18.85,10.9v21.8l-18.85,10.9-18.85-10.9V45.35l18.85-10.9m0-1.15L711.92,44.78v23L731.77,79.2l19.85-11.47v-23L731.77,33.3Z"/><path class="cls-1" d="M770.23,34.45l18.85,10.9v21.8l-18.85,10.9-18.85-10.9V45.35l18.85-10.9m0-1.15L750.38,44.78v23L770.23,79.2l19.85-11.47v-23L770.23,33.3Z"/><path class="cls-1" d="M20.25,67.75,39.1,78.65v21.8l-18.85,10.9L1.4,100.45V78.65l18.85-10.9m0-1.15L.4,78.08v23L20.25,112.5,40.1,101v-23L20.25,66.6Z"/><path class="cls-1" d="M58.71,67.75l18.85,10.9v21.8l-18.85,10.9-18.85-10.9V78.65l18.85-10.9m0-1.15L38.86,78.08v23L58.71,112.5,78.56,101v-23L58.71,66.6Z"/><path class="cls-1" d="M97.17,67.75,116,78.65v21.8l-18.85,10.9-18.85-10.9V78.65l18.85-10.9m0-1.15L77.32,78.08v23L97.17,112.5,117,101v-23L97.17,66.6Z"/><path class="cls-1" d="M135.63,67.75l18.85,10.9v21.8l-18.85,10.9-18.85-10.9V78.65l18.85-10.9m0-1.15L115.78,78.08v23l19.85,11.47L155.48,101v-23L135.63,66.6Z"/><path class="cls-1" d="M174.09,67.75l18.85,10.9v21.8l-18.85,10.9-18.85-10.9V78.65l18.85-10.9m0-1.15L154.24,78.08v23l19.85,11.47L193.94,101v-23L174.09,66.6Z"/><path class="cls-1" d="M212.43,67.75l18.85,10.9v21.8l-18.85,10.9-18.85-10.9V78.65l18.85-10.9m0-1.15L192.58,78.08v23l19.85,11.47L232.28,101v-23L212.43,66.6Z"/><path class="cls-1" d="M250.89,67.75l18.85,10.9v21.8l-18.85,10.9L232,100.45V78.65l18.85-10.9m0-1.15L231,78.08v23l19.85,11.47L270.74,101v-23L250.89,66.6Z"/><path class="cls-1" d="M289.35,67.75l18.85,10.9v21.8l-18.85,10.9-18.85-10.9V78.65l18.85-10.9m0-1.15L269.5,78.08v23l19.85,11.47L309.2,101v-23L289.35,66.6Z"/><path class="cls-1" d="M327.81,67.75l18.85,10.9v21.8l-18.85,10.9L309,100.45V78.65l18.85-10.9m0-1.15L308,78.08v23l19.85,11.47L347.66,101v-23L327.81,66.6Z"/><path class="cls-1" d="M366.27,67.75l18.85,10.9v21.8l-18.85,10.9-18.85-10.9V78.65l18.85-10.9m0-1.15L346.42,78.08v23l19.85,11.47L386.12,101v-23L366.27,66.6Z"/><path class="cls-1" d="M404.73,67.75l18.85,10.9v21.8l-18.85,10.9-18.85-10.9V78.65l18.85-10.9m0-1.15L384.88,78.08v23l19.85,11.47L424.58,101v-23L404.73,66.6Z"/><path class="cls-1" d="M443.19,67.75,462,78.65v21.8l-18.85,10.9-18.85-10.9V78.65l18.85-10.9m0-1.15L423.34,78.08v23l19.85,11.47L463,101v-23L443.19,66.6Z"/><path class="cls-1" d="M481.65,67.75l18.85,10.9v21.8l-18.85,10.9-18.85-10.9V78.65l18.85-10.9m0-1.15L461.8,78.08v23l19.85,11.47L501.5,101v-23L481.65,66.6Z"/><path class="cls-1" d="M520.24,67.75l18.85,10.9v21.8l-18.85,10.9-18.85-10.9V78.65l18.85-10.9m0-1.15L500.39,78.08v23l19.85,11.47L540.09,101v-23L520.24,66.6Z"/><path class="cls-1" d="M558.58,67.75l18.85,10.9v21.8l-18.85,10.9-18.86-10.9V78.65l18.86-10.9m0-1.15L538.72,78.08v23l19.86,11.47L578.43,101v-23L558.58,66.6Z"/><path class="cls-1" d="M597,67.75l18.85,10.9v21.8L597,111.35l-18.85-10.9V78.65L597,67.75m0-1.15L577.19,78.08v23L597,112.5,616.89,101v-23L597,66.6Z"/><path class="cls-1" d="M635.5,67.75l18.85,10.9v21.8l-18.85,10.9-18.85-10.9V78.65l18.85-10.9m0-1.15L615.65,78.08v23L635.5,112.5,655.35,101v-23L635.5,66.6Z"/><path class="cls-1" d="M674,67.75l18.85,10.9v21.8L674,111.35l-18.85-10.9V78.65L674,67.75m0-1.15L654.11,78.08v23L674,112.5,693.81,101v-23L674,66.6Z"/><path class="cls-1" d="M712.42,67.75l18.85,10.9v21.8l-18.85,10.9-18.85-10.9V78.65l18.85-10.9m0-1.15L692.57,78.08v23l19.85,11.47L732.27,101v-23L712.42,66.6Z"/><path class="cls-1" d="M750.88,67.75l18.85,10.9v21.8l-18.85,10.9L732,100.45V78.65l18.85-10.9m0-1.15L731,78.08v23l19.85,11.47L770.73,101v-23L750.88,66.6Z"/><path class="cls-1" d="M789.34,67.75l18.85,10.9v21.8l-18.85,10.9-18.85-10.9V78.65l18.85-10.9m0-1.15L769.49,78.08v23l19.85,11.47L809.19,101v-23L789.34,66.6Z"/><path class="cls-1" d="M39.48,101.05,58.33,112v21.8l-18.85,10.9-18.85-10.9V112l18.85-10.9m0-1.15L19.63,111.38v23L39.48,145.8l19.85-11.47v-23L39.48,99.9Z"/><path class="cls-1" d="M77.94,101.05,96.79,112v21.8l-18.85,10.9-18.85-10.9V112l18.85-10.9m0-1.15L58.09,111.38v23L77.94,145.8l19.85-11.47v-23L77.94,99.9Z"/><path class="cls-1" d="M116.4,101.05,135.25,112v21.8l-18.85,10.9-18.85-10.9V112l18.85-10.9m0-1.15L96.55,111.38v23L116.4,145.8l19.85-11.47v-23L116.4,99.9Z"/><path class="cls-1" d="M154.86,101.05,173.71,112v21.8l-18.85,10.9L136,133.75V112l18.85-10.9m0-1.15L135,111.38v23l19.85,11.47,19.85-11.47v-23L154.86,99.9Z"/><path class="cls-1" d="M193.32,101.05,212.17,112v21.8l-18.85,10.9-18.85-10.9V112l18.85-10.9m0-1.15-19.85,11.48v23l19.85,11.47,19.85-11.47v-23L193.32,99.9Z"/><path class="cls-1" d="M231.78,101.05,250.63,112v21.8l-18.85,10.9-18.85-10.9V112l18.85-10.9m0-1.15-19.85,11.48v23l19.85,11.47,19.85-11.47v-23L231.78,99.9Z"/><path class="cls-1" d="M270.24,101.05,289.09,112v21.8l-18.85,10.9-18.85-10.9V112l18.85-10.9m0-1.15-19.85,11.48v23l19.85,11.47,19.85-11.47v-23L270.24,99.9Z"/><path class="cls-1" d="M308.7,101.05,327.56,112v21.8l-18.85,10.9-18.85-10.9V112l18.85-10.9m0-1.15-19.85,11.48v23L308.7,145.8l19.85-11.47v-23L308.7,99.9Z"/><path class="cls-1" d="M347.17,101.05,366,112v21.8l-18.85,10.9-18.86-10.9V112l18.86-10.9m0-1.15-19.86,11.48v23l19.86,11.47L367,134.33v-23L347.17,99.9Z"/><path class="cls-1" d="M385.63,101.05,404.48,112v21.8l-18.85,10.9-18.85-10.9V112l18.85-10.9m0-1.15-19.85,11.48v23l19.85,11.47,19.85-11.47v-23L385.63,99.9Z"/><path class="cls-1" d="M424.09,101.05,442.94,112v21.8l-18.85,10.9-18.85-10.9V112l18.85-10.9m0-1.15-19.85,11.48v23l19.85,11.47,19.85-11.47v-23L424.09,99.9Z"/><path class="cls-1" d="M462.55,101.05,481.4,112v21.8l-18.85,10.9-18.85-10.9V112l18.85-10.9m0-1.15L442.7,111.38v23l19.85,11.47,19.85-11.47v-23L462.55,99.9Z"/><path class="cls-1" d="M501,101.05,519.86,112v21.8L501,144.65l-18.85-10.9V112L501,101.05m0-1.15-19.85,11.48v23L501,145.8l19.85-11.47v-23L501,99.9Z"/><path class="cls-1" d="M539.47,101.05,558.32,112v21.8l-18.85,10.9-18.85-10.9V112l18.85-10.9m0-1.15-19.85,11.48v23l19.85,11.47,19.85-11.47v-23L539.47,99.9Z"/><path class="cls-1" d="M577.93,101.05,596.78,112v21.8l-18.85,10.9-18.85-10.9V112l18.85-10.9m0-1.15-19.85,11.48v23l19.85,11.47,19.85-11.47v-23L577.93,99.9Z"/><path class="cls-1" d="M616.39,101.05,635.24,112v21.8l-18.85,10.9-18.85-10.9V112l18.85-10.9m0-1.15-19.85,11.48v23l19.85,11.47,19.85-11.47v-23L616.39,99.9Z"/><path class="cls-1" d="M654.85,101.05,673.7,112v21.8l-18.85,10.9L636,133.75V112l18.85-10.9m0-1.15L635,111.38v23l19.85,11.47,19.85-11.47v-23L654.85,99.9Z"/><path class="cls-1" d="M693.31,101.05,712.16,112v21.8l-18.85,10.9-18.85-10.9V112l18.85-10.9m0-1.15-19.85,11.48v23l19.85,11.47,19.85-11.47v-23L693.31,99.9Z"/><path class="cls-1" d="M731.77,101.05,750.62,112v21.8l-18.85,10.9-18.85-10.9V112l18.85-10.9m0-1.15-19.85,11.48v23l19.85,11.47,19.85-11.47v-23L731.77,99.9Z"/><path class="cls-1" d="M770.23,101.05,789.08,112v21.8l-18.85,10.9-18.85-10.9V112l18.85-10.9m0-1.15-19.85,11.48v23l19.85,11.47,19.85-11.47v-23L770.23,99.9Z"/><path class="cls-1" d="M808.69,101.05,827.55,112v21.8l-18.86,10.9-18.85-10.9V112l18.85-10.9m0-1.15-19.85,11.48v23l19.85,11.47,19.86-11.47v-23L808.69,99.9Z"/><path class="cls-1" d="M20.25,134.3,39.1,145.2V167L20.25,177.9,1.4,167V145.2l18.85-10.9m0-1.15L.4,144.63v23l19.85,11.47L40.1,167.58v-23L20.25,133.15Z"/><path class="cls-1" d="M58.71,134.3l18.85,10.9V167L58.71,177.9,39.86,167V145.2l18.85-10.9m0-1.15L38.86,144.63v23l19.85,11.47,19.85-11.47v-23L58.71,133.15Z"/><path class="cls-1" d="M97.17,134.3,116,145.2V167L97.17,177.9,78.32,167V145.2l18.85-10.9m0-1.15L77.32,144.63v23l19.85,11.47L117,167.58v-23L97.17,133.15Z"/><path class="cls-1" d="M135.63,134.3l18.85,10.9V167l-18.85,10.9L116.78,167V145.2l18.85-10.9m0-1.15-19.85,11.48v23l19.85,11.47,19.85-11.47v-23l-19.85-11.47Z"/><path class="cls-1" d="M174.09,134.3l18.85,10.9V167l-18.85,10.9L155.24,167V145.2l18.85-10.9m0-1.15-19.85,11.48v23l19.85,11.47,19.85-11.47v-23l-19.85-11.47Z"/><path class="cls-1" d="M212.43,134.3l18.85,10.9V167l-18.85,10.9L193.58,167V145.2l18.85-10.9m0-1.15-19.85,11.48v23l19.85,11.47,19.85-11.47v-23l-19.85-11.47Z"/><path class="cls-1" d="M250.89,134.3l18.85,10.9V167l-18.85,10.9L232,167V145.2l18.85-10.9m0-1.15L231,144.63v23l19.85,11.47,19.85-11.47v-23l-19.85-11.47Z"/><path class="cls-1" d="M289.35,134.3l18.85,10.9V167l-18.85,10.9L270.5,167V145.2l18.85-10.9m0-1.15L269.5,144.63v23l19.85,11.47,19.85-11.47v-23l-19.85-11.47Z"/><path class="cls-1" d="M327.81,134.3l18.85,10.9V167l-18.85,10.9L309,167V145.2l18.85-10.9m0-1.15L308,144.63v23l19.85,11.47,19.85-11.47v-23l-19.85-11.47Z"/><path class="cls-1" d="M366.27,134.3l18.85,10.9V167l-18.85,10.9L347.42,167V145.2l18.85-10.9m0-1.15-19.85,11.48v23l19.85,11.47,19.85-11.47v-23l-19.85-11.47Z"/><path class="cls-1" d="M404.73,134.3l18.85,10.9V167l-18.85,10.9L385.88,167V145.2l18.85-10.9m0-1.15-19.85,11.48v23l19.85,11.47,19.85-11.47v-23l-19.85-11.47Z"/><path class="cls-1" d="M443.19,134.3,462,145.2V167l-18.85,10.9L424.34,167V145.2l18.85-10.9m0-1.15-19.85,11.48v23l19.85,11.47L463,167.58v-23l-19.85-11.47Z"/><path class="cls-1" d="M481.65,134.3l18.85,10.9V167l-18.85,10.9L462.8,167V145.2l18.85-10.9m0-1.15L461.8,144.63v23l19.85,11.47,19.85-11.47v-23l-19.85-11.47Z"/><path class="cls-1" d="M520.24,134.3l18.85,10.9V167l-18.85,10.9L501.39,167V145.2l18.85-10.9m0-1.15-19.85,11.48v23l19.85,11.47,19.85-11.47v-23l-19.85-11.47Z"/><path class="cls-1" d="M558.58,134.3l18.85,10.9V167l-18.85,10.9L539.72,167V145.2l18.86-10.9m0-1.15-19.86,11.48v23l19.86,11.47,19.85-11.47v-23l-19.85-11.47Z"/><path class="cls-1" d="M597,134.3l18.85,10.9V167L597,177.9,578.19,167V145.2L597,134.3m0-1.15-19.85,11.48v23L597,179.05l19.85-11.47v-23L597,133.15Z"/><path class="cls-1" d="M635.5,134.3l18.85,10.9V167L635.5,177.9,616.65,167V145.2l18.85-10.9m0-1.15-19.85,11.48v23l19.85,11.47,19.85-11.47v-23L635.5,133.15Z"/><path class="cls-1" d="M674,134.3l18.85,10.9V167L674,177.9,655.11,167V145.2L674,134.3m0-1.15-19.85,11.48v23L674,179.05l19.85-11.47v-23L674,133.15Z"/><path class="cls-1" d="M712.42,134.3l18.85,10.9V167l-18.85,10.9L693.57,167V145.2l18.85-10.9m0-1.15-19.85,11.48v23l19.85,11.47,19.85-11.47v-23l-19.85-11.47Z"/><path class="cls-1" d="M750.88,134.3l18.85,10.9V167l-18.85,10.9L732,167V145.2l18.85-10.9m0-1.15L731,144.63v23l19.85,11.47,19.85-11.47v-23l-19.85-11.47Z"/><path class="cls-1" d="M789.34,134.3l18.85,10.9V167l-18.85,10.9L770.49,167V145.2l18.85-10.9m0-1.15-19.85,11.48v23l19.85,11.47,19.85-11.47v-23l-19.85-11.47Z"/><path class="cls-1" d="M827.8,134.3l18.85,10.9V167L827.8,177.9,809,167V145.2l18.85-10.9m0-1.15L808,144.63v23l19.85,11.47,19.85-11.47v-23L827.8,133.15Z"/><path class="cls-1" d="M39.48,167.6l18.85,10.9v21.8L39.48,211.2,20.63,200.3V178.5l18.85-10.9m0-1.15L19.63,177.92v23l19.85,11.47,19.85-11.47v-23L39.48,166.45Z"/><path class="cls-1" d="M77.94,167.6l18.85,10.9v21.8L77.94,211.2,59.09,200.3V178.5l18.85-10.9m0-1.15L58.09,177.92v23l19.85,11.47,19.85-11.47v-23L77.94,166.45Z"/><path class="cls-1" d="M116.4,167.6l18.85,10.9v21.8L116.4,211.2,97.55,200.3V178.5l18.85-10.9m0-1.15L96.55,177.92v23l19.85,11.47,19.85-11.47v-23L116.4,166.45Z"/><path class="cls-1" d="M154.86,167.6l18.85,10.9v21.8l-18.85,10.9L136,200.3V178.5l18.85-10.9m0-1.15L135,177.92v23l19.85,11.47,19.85-11.47v-23l-19.85-11.47Z"/><path class="cls-1" d="M193.32,167.6l18.85,10.9v21.8l-18.85,10.9-18.85-10.9V178.5l18.85-10.9m0-1.15-19.85,11.47v23l19.85,11.47,19.85-11.47v-23l-19.85-11.47Z"/><path class="cls-1" d="M231.78,167.6l18.85,10.9v21.8l-18.85,10.9-18.85-10.9V178.5l18.85-10.9m0-1.15-19.85,11.47v23l19.85,11.47,19.85-11.47v-23l-19.85-11.47Z"/><path class="cls-1" d="M270.24,167.6l18.85,10.9v21.8l-18.85,10.9-18.85-10.9V178.5l18.85-10.9m0-1.15-19.85,11.47v23l19.85,11.47,19.85-11.47v-23l-19.85-11.47Z"/><path class="cls-1" d="M308.7,167.6l18.86,10.9v21.8L308.7,211.2l-18.85-10.9V178.5l18.85-10.9m0-1.15-19.85,11.47v23l19.85,11.47,19.85-11.47v-23L308.7,166.45Z"/><path class="cls-1" d="M347.17,167.6,366,178.5v21.8l-18.85,10.9-18.86-10.9V178.5l18.86-10.9m0-1.15-19.86,11.47v23l19.86,11.47L367,200.88v-23l-19.85-11.47Z"/><path class="cls-1" d="M385.63,167.6l18.85,10.9v21.8l-18.85,10.9-18.85-10.9V178.5l18.85-10.9m0-1.15-19.85,11.47v23l19.85,11.47,19.85-11.47v-23l-19.85-11.47Z"/><path class="cls-1" d="M424.09,167.6l18.85,10.9v21.8l-18.85,10.9-18.85-10.9V178.5l18.85-10.9m0-1.15-19.85,11.47v23l19.85,11.47,19.85-11.47v-23l-19.85-11.47Z"/><path class="cls-1" d="M462.55,167.6l18.85,10.9v21.8l-18.85,10.9L443.7,200.3V178.5l18.85-10.9m0-1.15L442.7,177.92v23l19.85,11.47,19.85-11.47v-23l-19.85-11.47Z"/><path class="cls-1" d="M501,167.6l18.85,10.9v21.8L501,211.2l-18.85-10.9V178.5L501,167.6m0-1.15-19.85,11.47v23L501,212.35l19.85-11.47v-23L501,166.45Z"/><path class="cls-1" d="M539.47,167.6l18.85,10.9v21.8l-18.85,10.9-18.85-10.9V178.5l18.85-10.9m0-1.15-19.85,11.47v23l19.85,11.47,19.85-11.47v-23l-19.85-11.47Z"/><path class="cls-1" d="M577.93,167.6l18.85,10.9v21.8l-18.85,10.9-18.85-10.9V178.5l18.85-10.9m0-1.15-19.85,11.47v23l19.85,11.47,19.85-11.47v-23l-19.85-11.47Z"/><path class="cls-1" d="M616.39,167.6l18.85,10.9v21.8l-18.85,10.9-18.85-10.9V178.5l18.85-10.9m0-1.15-19.85,11.47v23l19.85,11.47,19.85-11.47v-23l-19.85-11.47Z"/><path class="cls-1" d="M654.85,167.6l18.85,10.9v21.8l-18.85,10.9L636,200.3V178.5l18.85-10.9m0-1.15L635,177.92v23l19.85,11.47,19.85-11.47v-23l-19.85-11.47Z"/><path class="cls-1" d="M693.31,167.6l18.85,10.9v21.8l-18.85,10.9-18.85-10.9V178.5l18.85-10.9m0-1.15-19.85,11.47v23l19.85,11.47,19.85-11.47v-23l-19.85-11.47Z"/><path class="cls-1" d="M731.77,167.6l18.85,10.9v21.8l-18.85,10.9-18.85-10.9V178.5l18.85-10.9m0-1.15-19.85,11.47v23l19.85,11.47,19.85-11.47v-23l-19.85-11.47Z"/><path class="cls-1" d="M770.23,167.6l18.85,10.9v21.8l-18.85,10.9-18.85-10.9V178.5l18.85-10.9m0-1.15-19.85,11.47v23l19.85,11.47,19.85-11.47v-23l-19.85-11.47Z"/><path class="cls-1" d="M808.69,167.6l18.86,10.9v21.8l-18.86,10.9-18.85-10.9V178.5l18.85-10.9m0-1.15-19.85,11.47v23l19.85,11.47,19.86-11.47v-23l-19.86-11.47Z"/><path class="cls-1" d="M20.25,200.9,39.1,211.8v21.8L20.25,244.5,1.4,233.6V211.8l18.85-10.9m0-1.15L.4,211.22v23l19.85,11.47L40.1,234.18v-23L20.25,199.75Z"/><path class="cls-1" d="M58.71,200.9l18.85,10.9v21.8L58.71,244.5,39.86,233.6V211.8l18.85-10.9m0-1.15L38.86,211.22v23l19.85,11.47,19.85-11.47v-23L58.71,199.75Z"/><path class="cls-1" d="M97.17,200.9,116,211.8v21.8L97.17,244.5,78.32,233.6V211.8l18.85-10.9m0-1.15L77.32,211.22v23l19.85,11.47L117,234.18v-23L97.17,199.75Z"/><path class="cls-1" d="M135.63,200.9l18.85,10.9v21.8l-18.85,10.9-18.85-10.9V211.8l18.85-10.9m0-1.15-19.85,11.47v23l19.85,11.47,19.85-11.47v-23l-19.85-11.47Z"/><path class="cls-1" d="M174.09,200.9l18.85,10.9v21.8l-18.85,10.9-18.85-10.9V211.8l18.85-10.9m0-1.15-19.85,11.47v23l19.85,11.47,19.85-11.47v-23l-19.85-11.47Z"/><path class="cls-1" d="M212.43,200.9l18.85,10.9v21.8l-18.85,10.9-18.85-10.9V211.8l18.85-10.9m0-1.15-19.85,11.47v23l19.85,11.47,19.85-11.47v-23l-19.85-11.47Z"/><path class="cls-1" d="M250.89,200.9l18.85,10.9v21.8l-18.85,10.9L232,233.6V211.8l18.85-10.9m0-1.15L231,211.22v23l19.85,11.47,19.85-11.47v-23l-19.85-11.47Z"/><path class="cls-1" d="M289.35,200.9l18.85,10.9v21.8l-18.85,10.9L270.5,233.6V211.8l18.85-10.9m0-1.15L269.5,211.22v23l19.85,11.47,19.85-11.47v-23l-19.85-11.47Z"/><path class="cls-1" d="M327.81,200.9l18.85,10.9v21.8l-18.85,10.9L309,233.6V211.8l18.85-10.9m0-1.15L308,211.22v23l19.85,11.47,19.85-11.47v-23l-19.85-11.47Z"/><path class="cls-1" d="M366.27,200.9l18.85,10.9v21.8l-18.85,10.9-18.85-10.9V211.8l18.85-10.9m0-1.15-19.85,11.47v23l19.85,11.47,19.85-11.47v-23l-19.85-11.47Z"/><path class="cls-1" d="M404.73,200.9l18.85,10.9v21.8l-18.85,10.9-18.85-10.9V211.8l18.85-10.9m0-1.15-19.85,11.47v23l19.85,11.47,19.85-11.47v-23l-19.85-11.47Z"/><path class="cls-1" d="M443.19,200.9,462,211.8v21.8l-18.85,10.9-18.85-10.9V211.8l18.85-10.9m0-1.15-19.85,11.47v23l19.85,11.47L463,234.18v-23l-19.85-11.47Z"/><path class="cls-1" d="M481.65,200.9l18.85,10.9v21.8l-18.85,10.9L462.8,233.6V211.8l18.85-10.9m0-1.15L461.8,211.22v23l19.85,11.47,19.85-11.47v-23l-19.85-11.47Z"/><path class="cls-1" d="M520.24,200.9l18.85,10.9v21.8l-18.85,10.9-18.85-10.9V211.8l18.85-10.9m0-1.15-19.85,11.47v23l19.85,11.47,19.85-11.47v-23l-19.85-11.47Z"/><path class="cls-1" d="M558.58,200.9l18.85,10.9v21.8l-18.85,10.9-18.86-10.9V211.8l18.86-10.9m0-1.15-19.86,11.47v23l19.86,11.47,19.85-11.47v-23l-19.85-11.47Z"/><path class="cls-1" d="M597,200.9l18.85,10.9v21.8L597,244.5l-18.85-10.9V211.8L597,200.9m0-1.15-19.85,11.47v23L597,245.65l19.85-11.47v-23L597,199.75Z"/><path class="cls-1" d="M635.5,200.9l18.85,10.9v21.8L635.5,244.5l-18.85-10.9V211.8l18.85-10.9m0-1.15-19.85,11.47v23l19.85,11.47,19.85-11.47v-23L635.5,199.75Z"/><path class="cls-1" d="M674,200.9l18.85,10.9v21.8L674,244.5l-18.85-10.9V211.8L674,200.9m0-1.15-19.85,11.47v23L674,245.65l19.85-11.47v-23L674,199.75Z"/><path class="cls-1" d="M712.42,200.9l18.85,10.9v21.8l-18.85,10.9-18.85-10.9V211.8l18.85-10.9m0-1.15-19.85,11.47v23l19.85,11.47,19.85-11.47v-23l-19.85-11.47Z"/><path class="cls-1" d="M750.88,200.9l18.85,10.9v21.8l-18.85,10.9L732,233.6V211.8l18.85-10.9m0-1.15L731,211.22v23l19.85,11.47,19.85-11.47v-23l-19.85-11.47Z"/><path class="cls-1" d="M789.34,200.9l18.85,10.9v21.8l-18.85,10.9-18.85-10.9V211.8l18.85-10.9m0-1.15-19.85,11.47v23l19.85,11.47,19.85-11.47v-23l-19.85-11.47Z"/><path class="cls-1" d="M827.8,200.9l18.85,10.9v21.8L827.8,244.5,809,233.6V211.8l18.85-10.9m0-1.15L808,211.22v23l19.85,11.47,19.85-11.47v-23L827.8,199.75Z"/><path class="cls-1" d="M39.48,234.2l18.85,10.9v21.8L39.48,277.8,20.63,266.9V245.1l18.85-10.9m0-1.15L19.63,244.52v23L39.48,279l19.85-11.47v-23L39.48,233.05Z"/><path class="cls-1" d="M77.94,234.2l18.85,10.9v21.8L77.94,277.8,59.09,266.9V245.1l18.85-10.9m0-1.15L58.09,244.52v23L77.94,279l19.85-11.47v-23L77.94,233.05Z"/><path class="cls-1" d="M116.4,234.2l18.85,10.9v21.8L116.4,277.8,97.55,266.9V245.1l18.85-10.9m0-1.15L96.55,244.52v23L116.4,279l19.85-11.47v-23L116.4,233.05Z"/><path class="cls-1" d="M154.86,234.2l18.85,10.9v21.8l-18.85,10.9L136,266.9V245.1l18.85-10.9m0-1.15L135,244.52v23L154.86,279l19.85-11.47v-23l-19.85-11.47Z"/><path class="cls-1" d="M193.32,234.2l18.85,10.9v21.8l-18.85,10.9-18.85-10.9V245.1l18.85-10.9m0-1.15-19.85,11.47v23L193.32,279l19.85-11.47v-23l-19.85-11.47Z"/><path class="cls-1" d="M231.78,234.2l18.85,10.9v21.8l-18.85,10.9-18.85-10.9V245.1l18.85-10.9m0-1.15-19.85,11.47v23L231.78,279l19.85-11.47v-23l-19.85-11.47Z"/><path class="cls-1" d="M270.24,234.2l18.85,10.9v21.8l-18.85,10.9-18.85-10.9V245.1l18.85-10.9m0-1.15-19.85,11.47v23L270.24,279l19.85-11.47v-23l-19.85-11.47Z"/><path class="cls-1" d="M308.7,234.2l18.86,10.9v21.8L308.7,277.8l-18.85-10.9V245.1l18.85-10.9m0-1.15-19.85,11.47v23L308.7,279l19.85-11.47v-23L308.7,233.05Z"/><path class="cls-1" d="M347.17,234.2,366,245.1v21.8l-18.85,10.9-18.86-10.9V245.1l18.86-10.9m0-1.15-19.86,11.47v23L347.17,279,367,267.48v-23l-19.85-11.47Z"/><path class="cls-1" d="M385.63,234.2l18.85,10.9v21.8l-18.85,10.9-18.85-10.9V245.1l18.85-10.9m0-1.15-19.85,11.47v23L385.63,279l19.85-11.47v-23l-19.85-11.47Z"/><path class="cls-1" d="M424.09,234.2l18.85,10.9v21.8l-18.85,10.9-18.85-10.9V245.1l18.85-10.9m0-1.15-19.85,11.47v23L424.09,279l19.85-11.47v-23l-19.85-11.47Z"/><path class="cls-1" d="M462.55,234.2l18.85,10.9v21.8l-18.85,10.9L443.7,266.9V245.1l18.85-10.9m0-1.15L442.7,244.52v23L462.55,279l19.85-11.47v-23l-19.85-11.47Z"/><path class="cls-1" d="M501,234.2l18.85,10.9v21.8L501,277.8l-18.85-10.9V245.1L501,234.2m0-1.15-19.85,11.47v23L501,279l19.85-11.47v-23L501,233.05Z"/><path class="cls-1" d="M539.47,234.2l18.85,10.9v21.8l-18.85,10.9-18.85-10.9V245.1l18.85-10.9m0-1.15-19.85,11.47v23L539.47,279l19.85-11.47v-23l-19.85-11.47Z"/><path class="cls-1" d="M577.93,234.2l18.85,10.9v21.8l-18.85,10.9-18.85-10.9V245.1l18.85-10.9m0-1.15-19.85,11.47v23L577.93,279l19.85-11.47v-23l-19.85-11.47Z"/><path class="cls-1" d="M616.39,234.2l18.85,10.9v21.8l-18.85,10.9-18.85-10.9V245.1l18.85-10.9m0-1.15-19.85,11.47v23L616.39,279l19.85-11.47v-23l-19.85-11.47Z"/><path class="cls-1" d="M654.85,234.2l18.85,10.9v21.8l-18.85,10.9L636,266.9V245.1l18.85-10.9m0-1.15L635,244.52v23L654.85,279l19.85-11.47v-23l-19.85-11.47Z"/><path class="cls-1" d="M693.31,234.2l18.85,10.9v21.8l-18.85,10.9-18.85-10.9V245.1l18.85-10.9m0-1.15-19.85,11.47v23L693.31,279l19.85-11.47v-23l-19.85-11.47Z"/><path class="cls-1" d="M731.77,234.2l18.85,10.9v21.8l-18.85,10.9-18.85-10.9V245.1l18.85-10.9m0-1.15-19.85,11.47v23L731.77,279l19.85-11.47v-23l-19.85-11.47Z"/><path class="cls-1" d="M770.23,234.2l18.85,10.9v21.8l-18.85,10.9-18.85-10.9V245.1l18.85-10.9m0-1.15-19.85,11.47v23L770.23,279l19.85-11.47v-23l-19.85-11.47Z"/><path class="cls-1" d="M808.69,234.2l18.86,10.9v21.8l-18.86,10.9-18.85-10.9V245.1l18.85-10.9m0-1.15-19.85,11.47v23L808.69,279l19.86-11.47v-23l-19.86-11.47Z"/><path class="cls-1" d="M20.25,267.5,39.1,278.4v21.8L20.25,311.1,1.4,300.2V278.4l18.85-10.9m0-1.15L.4,277.82v23l19.85,11.47L40.1,300.78v-23L20.25,266.35Z"/><path class="cls-1" d="M58.71,267.5l18.85,10.9v21.8L58.71,311.1,39.86,300.2V278.4l18.85-10.9m0-1.15L38.86,277.82v23l19.85,11.47,19.85-11.47v-23L58.71,266.35Z"/><path class="cls-1" d="M97.17,267.5,116,278.4v21.8L97.17,311.1,78.32,300.2V278.4l18.85-10.9m0-1.15L77.32,277.82v23l19.85,11.47L117,300.78v-23L97.17,266.35Z"/><path class="cls-1" d="M135.63,267.5l18.85,10.9v21.8l-18.85,10.9-18.85-10.9V278.4l18.85-10.9m0-1.15-19.85,11.47v23l19.85,11.47,19.85-11.47v-23l-19.85-11.47Z"/><path class="cls-1" d="M174.09,267.5l18.85,10.9v21.8l-18.85,10.9-18.85-10.9V278.4l18.85-10.9m0-1.15-19.85,11.47v23l19.85,11.47,19.85-11.47v-23l-19.85-11.47Z"/><path class="cls-1" d="M212.43,267.5l18.85,10.9v21.8l-18.85,10.9-18.85-10.9V278.4l18.85-10.9m0-1.15-19.85,11.47v23l19.85,11.47,19.85-11.47v-23l-19.85-11.47Z"/><path class="cls-1" d="M250.89,267.5l18.85,10.9v21.8l-18.85,10.9L232,300.2V278.4l18.85-10.9m0-1.15L231,277.82v23l19.85,11.47,19.85-11.47v-23l-19.85-11.47Z"/><path class="cls-1" d="M289.35,267.5l18.85,10.9v21.8l-18.85,10.9L270.5,300.2V278.4l18.85-10.9m0-1.15L269.5,277.82v23l19.85,11.47,19.85-11.47v-23l-19.85-11.47Z"/><path class="cls-1" d="M327.81,267.5l18.85,10.9v21.8l-18.85,10.9L309,300.2V278.4l18.85-10.9m0-1.15L308,277.82v23l19.85,11.47,19.85-11.47v-23l-19.85-11.47Z"/><path class="cls-1" d="M366.27,267.5l18.85,10.9v21.8l-18.85,10.9-18.85-10.9V278.4l18.85-10.9m0-1.15-19.85,11.47v23l19.85,11.47,19.85-11.47v-23l-19.85-11.47Z"/><path class="cls-1" d="M404.73,267.5l18.85,10.9v21.8l-18.85,10.9-18.85-10.9V278.4l18.85-10.9m0-1.15-19.85,11.47v23l19.85,11.47,19.85-11.47v-23l-19.85-11.47Z"/><path class="cls-1" d="M443.19,267.5,462,278.4v21.8l-18.85,10.9-18.85-10.9V278.4l18.85-10.9m0-1.15-19.85,11.47v23l19.85,11.47L463,300.78v-23l-19.85-11.47Z"/><path class="cls-1" d="M481.65,267.5l18.85,10.9v21.8l-18.85,10.9L462.8,300.2V278.4l18.85-10.9m0-1.15L461.8,277.82v23l19.85,11.47,19.85-11.47v-23l-19.85-11.47Z"/><path class="cls-1" d="M520.24,267.5l18.85,10.9v21.8l-18.85,10.9-18.85-10.9V278.4l18.85-10.9m0-1.15-19.85,11.47v23l19.85,11.47,19.85-11.47v-23l-19.85-11.47Z"/><path class="cls-1" d="M558.58,267.5l18.85,10.9v21.8l-18.85,10.9-18.86-10.9V278.4l18.86-10.9m0-1.15-19.86,11.47v23l19.86,11.47,19.85-11.47v-23l-19.85-11.47Z"/><path class="cls-1" d="M597,267.5l18.85,10.9v21.8L597,311.1l-18.85-10.9V278.4L597,267.5m0-1.15-19.85,11.47v23L597,312.25l19.85-11.47v-23L597,266.35Z"/><path class="cls-1" d="M635.5,267.5l18.85,10.9v21.8L635.5,311.1l-18.85-10.9V278.4l18.85-10.9m0-1.15-19.85,11.47v23l19.85,11.47,19.85-11.47v-23L635.5,266.35Z"/><path class="cls-1" d="M674,267.5l18.85,10.9v21.8L674,311.1l-18.85-10.9V278.4L674,267.5m0-1.15-19.85,11.47v23L674,312.25l19.85-11.47v-23L674,266.35Z"/><path class="cls-1" d="M712.42,267.5l18.85,10.9v21.8l-18.85,10.9-18.85-10.9V278.4l18.85-10.9m0-1.15-19.85,11.47v23l19.85,11.47,19.85-11.47v-23l-19.85-11.47Z"/><path class="cls-1" d="M750.88,267.5l18.85,10.9v21.8l-18.85,10.9L732,300.2V278.4l18.85-10.9m0-1.15L731,277.82v23l19.85,11.47,19.85-11.47v-23l-19.85-11.47Z"/><path class="cls-1" d="M789.34,267.5l18.85,10.9v21.8l-18.85,10.9-18.85-10.9V278.4l18.85-10.9m0-1.15-19.85,11.47v23l19.85,11.47,19.85-11.47v-23l-19.85-11.47Z"/><path class="cls-1" d="M827.8,267.5l18.85,10.9v21.8L827.8,311.1,809,300.2V278.4l18.85-10.9m0-1.15L808,277.82v23l19.85,11.47,19.85-11.47v-23L827.8,266.35Z"/><path class="cls-1" d="M39.48,300.8l18.85,10.9v21.8L39.48,344.4,20.63,333.5V311.7l18.85-10.9m0-1.15L19.63,311.12v23l19.85,11.47,19.85-11.47v-23L39.48,299.65Z"/><path class="cls-1" d="M77.94,300.8l18.85,10.9v21.8L77.94,344.4,59.09,333.5V311.7l18.85-10.9m0-1.15L58.09,311.12v23l19.85,11.47,19.85-11.47v-23L77.94,299.65Z"/><path class="cls-1" d="M116.4,300.8l18.85,10.9v21.8L116.4,344.4,97.55,333.5V311.7l18.85-10.9m0-1.15L96.55,311.12v23l19.85,11.47,19.85-11.47v-23L116.4,299.65Z"/><path class="cls-1" d="M154.86,300.8l18.85,10.9v21.8l-18.85,10.9L136,333.5V311.7l18.85-10.9m0-1.15L135,311.12v23l19.85,11.47,19.85-11.47v-23l-19.85-11.47Z"/><path class="cls-1" d="M193.32,300.8l18.85,10.9v21.8l-18.85,10.9-18.85-10.9V311.7l18.85-10.9m0-1.15-19.85,11.47v23l19.85,11.47,19.85-11.47v-23l-19.85-11.47Z"/><path class="cls-1" d="M231.78,300.8l18.85,10.9v21.8l-18.85,10.9-18.85-10.9V311.7l18.85-10.9m0-1.15-19.85,11.47v23l19.85,11.47,19.85-11.47v-23l-19.85-11.47Z"/><path class="cls-1" d="M270.24,300.8l18.85,10.9v21.8l-18.85,10.9-18.85-10.9V311.7l18.85-10.9m0-1.15-19.85,11.47v23l19.85,11.47,19.85-11.47v-23l-19.85-11.47Z"/><path class="cls-1" d="M308.7,300.8l18.86,10.9v21.8L308.7,344.4l-18.85-10.9V311.7l18.85-10.9m0-1.15-19.85,11.47v23l19.85,11.47,19.85-11.47v-23L308.7,299.65Z"/><path class="cls-1" d="M347.17,300.8,366,311.7v21.8l-18.85,10.9-18.86-10.9V311.7l18.86-10.9m0-1.15-19.86,11.47v23l19.86,11.47L367,334.08v-23l-19.85-11.47Z"/><path class="cls-1" d="M385.63,300.8l18.85,10.9v21.8l-18.85,10.9-18.85-10.9V311.7l18.85-10.9m0-1.15-19.85,11.47v23l19.85,11.47,19.85-11.47v-23l-19.85-11.47Z"/><path class="cls-1" d="M424.09,300.8l18.85,10.9v21.8l-18.85,10.9-18.85-10.9V311.7l18.85-10.9m0-1.15-19.85,11.47v23l19.85,11.47,19.85-11.47v-23l-19.85-11.47Z"/><path class="cls-1" d="M462.55,300.8l18.85,10.9v21.8l-18.85,10.9L443.7,333.5V311.7l18.85-10.9m0-1.15L442.7,311.12v23l19.85,11.47,19.85-11.47v-23l-19.85-11.47Z"/><path class="cls-1" d="M501,300.8l18.85,10.9v21.8L501,344.4l-18.85-10.9V311.7L501,300.8m0-1.15-19.85,11.47v23L501,345.55l19.85-11.47v-23L501,299.65Z"/><path class="cls-1" d="M539.47,300.8l18.85,10.9v21.8l-18.85,10.9-18.85-10.9V311.7l18.85-10.9m0-1.15-19.85,11.47v23l19.85,11.47,19.85-11.47v-23l-19.85-11.47Z"/><path class="cls-1" d="M577.93,300.8l18.85,10.9v21.8l-18.85,10.9-18.85-10.9V311.7l18.85-10.9m0-1.15-19.85,11.47v23l19.85,11.47,19.85-11.47v-23l-19.85-11.47Z"/><path class="cls-1" d="M616.39,300.8l18.85,10.9v21.8l-18.85,10.9-18.85-10.9V311.7l18.85-10.9m0-1.15-19.85,11.47v23l19.85,11.47,19.85-11.47v-23l-19.85-11.47Z"/><path class="cls-1" d="M654.85,300.8l18.85,10.9v21.8l-18.85,10.9L636,333.5V311.7l18.85-10.9m0-1.15L635,311.12v23l19.85,11.47,19.85-11.47v-23l-19.85-11.47Z"/><path class="cls-1" d="M693.31,300.8l18.85,10.9v21.8l-18.85,10.9-18.85-10.9V311.7l18.85-10.9m0-1.15-19.85,11.47v23l19.85,11.47,19.85-11.47v-23l-19.85-11.47Z"/><path class="cls-1" d="M731.77,300.8l18.85,10.9v21.8l-18.85,10.9-18.85-10.9V311.7l18.85-10.9m0-1.15-19.85,11.47v23l19.85,11.47,19.85-11.47v-23l-19.85-11.47Z"/><path class="cls-1" d="M770.23,300.8l18.85,10.9v21.8l-18.85,10.9-18.85-10.9V311.7l18.85-10.9m0-1.15-19.85,11.47v23l19.85,11.47,19.85-11.47v-23l-19.85-11.47Z"/><path class="cls-1" d="M808.69,300.8l18.86,10.9v21.8l-18.86,10.9-18.85-10.9V311.7l18.85-10.9m0-1.15-19.85,11.47v23l19.85,11.47,19.86-11.47v-23l-19.86-11.47Z"/><path class="cls-1" d="M20.25,334.05,39.1,345v21.8l-18.85,10.9L1.4,366.75V345l18.85-10.9m0-1.15L.4,344.37v23L20.25,378.8,40.1,367.33v-23L20.25,332.9Z"/><path class="cls-1" d="M58.71,334.05,77.56,345v21.8l-18.85,10.9-18.85-10.9V345l18.85-10.9m0-1.15L38.86,344.37v23L58.71,378.8l19.85-11.47v-23L58.71,332.9Z"/><path class="cls-1" d="M97.17,334.05,116,345v21.8l-18.85,10.9-18.85-10.9V345l18.85-10.9m0-1.15L77.32,344.37v23L97.17,378.8,117,367.33v-23L97.17,332.9Z"/><path class="cls-1" d="M135.63,334.05,154.48,345v21.8l-18.85,10.9-18.85-10.9V345l18.85-10.9m0-1.15-19.85,11.47v23l19.85,11.47,19.85-11.47v-23L135.63,332.9Z"/><path class="cls-1" d="M174.09,334.05,192.94,345v21.8l-18.85,10.9-18.85-10.9V345l18.85-10.9m0-1.15-19.85,11.47v23l19.85,11.47,19.85-11.47v-23L174.09,332.9Z"/><path class="cls-1" d="M212.43,334.05,231.28,345v21.8l-18.85,10.9-18.85-10.9V345l18.85-10.9m0-1.15-19.85,11.47v23l19.85,11.47,19.85-11.47v-23L212.43,332.9Z"/><path class="cls-1" d="M250.89,334.05,269.74,345v21.8l-18.85,10.9L232,366.75V345l18.85-10.9m0-1.15L231,344.37v23l19.85,11.47,19.85-11.47v-23L250.89,332.9Z"/><path class="cls-1" d="M289.35,334.05,308.2,345v21.8l-18.85,10.9-18.85-10.9V345l18.85-10.9m0-1.15L269.5,344.37v23l19.85,11.47,19.85-11.47v-23L289.35,332.9Z"/><path class="cls-1" d="M327.81,334.05,346.66,345v21.8l-18.85,10.9L309,366.75V345l18.85-10.9m0-1.15L308,344.37v23l19.85,11.47,19.85-11.47v-23L327.81,332.9Z"/><path class="cls-1" d="M366.27,334.05,385.12,345v21.8l-18.85,10.9-18.85-10.9V345l18.85-10.9m0-1.15-19.85,11.47v23l19.85,11.47,19.85-11.47v-23L366.27,332.9Z"/><path class="cls-1" d="M404.73,334.05,423.58,345v21.8l-18.85,10.9-18.85-10.9V345l18.85-10.9m0-1.15-19.85,11.47v23l19.85,11.47,19.85-11.47v-23L404.73,332.9Z"/><path class="cls-1" d="M443.19,334.05,462,345v21.8l-18.85,10.9-18.85-10.9V345l18.85-10.9m0-1.15-19.85,11.47v23l19.85,11.47L463,367.33v-23L443.19,332.9Z"/><path class="cls-1" d="M481.65,334.05,500.5,345v21.8l-18.85,10.9-18.85-10.9V345l18.85-10.9m0-1.15L461.8,344.37v23l19.85,11.47,19.85-11.47v-23L481.65,332.9Z"/><path class="cls-1" d="M520.24,334.05,539.09,345v21.8l-18.85,10.9-18.85-10.9V345l18.85-10.9m0-1.15-19.85,11.47v23l19.85,11.47,19.85-11.47v-23L520.24,332.9Z"/><path class="cls-1" d="M558.58,334.05,577.43,345v21.8l-18.85,10.9-18.86-10.9V345l18.86-10.9m0-1.15-19.86,11.47v23l19.86,11.47,19.85-11.47v-23L558.58,332.9Z"/><path class="cls-1" d="M597,334.05,615.89,345v21.8L597,377.65l-18.85-10.9V345L597,334.05m0-1.15-19.85,11.47v23L597,378.8l19.85-11.47v-23L597,332.9Z"/><path class="cls-1" d="M635.5,334.05,654.35,345v21.8l-18.85,10.9-18.85-10.9V345l18.85-10.9m0-1.15-19.85,11.47v23L635.5,378.8l19.85-11.47v-23L635.5,332.9Z"/><path class="cls-1" d="M674,334.05,692.81,345v21.8L674,377.65l-18.85-10.9V345L674,334.05m0-1.15-19.85,11.47v23L674,378.8l19.85-11.47v-23L674,332.9Z"/><path class="cls-1" d="M712.42,334.05,731.27,345v21.8l-18.85,10.9-18.85-10.9V345l18.85-10.9m0-1.15-19.85,11.47v23l19.85,11.47,19.85-11.47v-23L712.42,332.9Z"/><path class="cls-1" d="M750.88,334.05,769.73,345v21.8l-18.85,10.9L732,366.75V345l18.85-10.9m0-1.15L731,344.37v23l19.85,11.47,19.85-11.47v-23L750.88,332.9Z"/><path class="cls-1" d="M789.34,334.05,808.19,345v21.8l-18.85,10.9-18.85-10.9V345l18.85-10.9m0-1.15-19.85,11.47v23l19.85,11.47,19.85-11.47v-23L789.34,332.9Z"/><path class="cls-1" d="M827.8,334.05,846.65,345v21.8l-18.85,10.9L809,366.75V345l18.85-10.9m0-1.15L808,344.37v23L827.8,378.8l19.85-11.47v-23L827.8,332.9Z"/><path class="cls-1" d="M39.48,367.35l18.85,10.9v21.8L39.48,411l-18.85-10.9v-21.8l18.85-10.9m0-1.15L19.63,377.67v23L39.48,412.1l19.85-11.48V377.67L39.48,366.2Z"/><path class="cls-1" d="M77.94,367.35l18.85,10.9v21.8L77.94,411l-18.85-10.9v-21.8l18.85-10.9m0-1.15L58.09,377.67v23L77.94,412.1l19.85-11.48V377.67L77.94,366.2Z"/><path class="cls-1" d="M116.4,367.35l18.85,10.9v21.8L116.4,411l-18.85-10.9v-21.8l18.85-10.9m0-1.15L96.55,377.67v23L116.4,412.1l19.85-11.48V377.67L116.4,366.2Z"/><path class="cls-1" d="M154.86,367.35l18.85,10.9v21.8L154.86,411,136,400.05v-21.8l18.85-10.9m0-1.15L135,377.67v23l19.85,11.47,19.85-11.48V377.67L154.86,366.2Z"/><path class="cls-1" d="M193.32,367.35l18.85,10.9v21.8L193.32,411l-18.85-10.9v-21.8l18.85-10.9m0-1.15-19.85,11.47v23l19.85,11.47,19.85-11.48V377.67L193.32,366.2Z"/><path class="cls-1" d="M231.78,367.35l18.85,10.9v21.8L231.78,411l-18.85-10.9v-21.8l18.85-10.9m0-1.15-19.85,11.47v23l19.85,11.47,19.85-11.48V377.67L231.78,366.2Z"/><path class="cls-1" d="M270.24,367.35l18.85,10.9v21.8L270.24,411l-18.85-10.9v-21.8l18.85-10.9m0-1.15-19.85,11.47v23l19.85,11.47,19.85-11.48V377.67L270.24,366.2Z"/><path class="cls-1" d="M308.7,367.35l18.86,10.9v21.8L308.7,411l-18.85-10.9v-21.8l18.85-10.9m0-1.15-19.85,11.47v23L308.7,412.1l19.85-11.48V377.67L308.7,366.2Z"/><path class="cls-1" d="M347.17,367.35,366,378.25v21.8L347.17,411l-18.86-10.9v-21.8l18.86-10.9m0-1.15-19.86,11.47v23l19.86,11.47L367,400.62V377.67L347.17,366.2Z"/><path class="cls-1" d="M385.63,367.35l18.85,10.9v21.8L385.63,411l-18.85-10.9v-21.8l18.85-10.9m0-1.15-19.85,11.47v23l19.85,11.47,19.85-11.48V377.67L385.63,366.2Z"/><path class="cls-1" d="M424.09,367.35l18.85,10.9v21.8L424.09,411l-18.85-10.9v-21.8l18.85-10.9m0-1.15-19.85,11.47v23l19.85,11.47,19.85-11.48V377.67L424.09,366.2Z"/><path class="cls-1" d="M462.55,367.35l18.85,10.9v21.8L462.55,411l-18.85-10.9v-21.8l18.85-10.9m0-1.15L442.7,377.67v23l19.85,11.47,19.85-11.48V377.67L462.55,366.2Z"/><path class="cls-1" d="M501,367.35l18.85,10.9v21.8L501,411l-18.85-10.9v-21.8L501,367.35m0-1.15-19.85,11.47v23L501,412.1l19.85-11.48V377.67L501,366.2Z"/><path class="cls-1" d="M539.47,367.35l18.85,10.9v21.8L539.47,411l-18.85-10.9v-21.8l18.85-10.9m0-1.15-19.85,11.47v23l19.85,11.47,19.85-11.48V377.67L539.47,366.2Z"/><path class="cls-1" d="M577.93,367.35l18.85,10.9v21.8L577.93,411l-18.85-10.9v-21.8l18.85-10.9m0-1.15-19.85,11.47v23l19.85,11.47,19.85-11.48V377.67L577.93,366.2Z"/><path class="cls-1" d="M616.39,367.35l18.85,10.9v21.8L616.39,411l-18.85-10.9v-21.8l18.85-10.9m0-1.15-19.85,11.47v23l19.85,11.47,19.85-11.48V377.67L616.39,366.2Z"/><path class="cls-1" d="M654.85,367.35l18.85,10.9v21.8L654.85,411,636,400.05v-21.8l18.85-10.9m0-1.15L635,377.67v23l19.85,11.47,19.85-11.48V377.67L654.85,366.2Z"/><path class="cls-1" d="M693.31,367.35l18.85,10.9v21.8L693.31,411l-18.85-10.9v-21.8l18.85-10.9m0-1.15-19.85,11.47v23l19.85,11.47,19.85-11.48V377.67L693.31,366.2Z"/><path class="cls-1" d="M731.77,367.35l18.85,10.9v21.8L731.77,411l-18.85-10.9v-21.8l18.85-10.9m0-1.15-19.85,11.47v23l19.85,11.47,19.85-11.48V377.67L731.77,366.2Z"/><path class="cls-1" d="M770.23,367.35l18.85,10.9v21.8L770.23,411l-18.85-10.9v-21.8l18.85-10.9m0-1.15-19.85,11.47v23l19.85,11.47,19.85-11.48V377.67L770.23,366.2Z"/><path class="cls-1" d="M808.69,367.35l18.86,10.9v21.8L808.69,411l-18.85-10.9v-21.8l18.85-10.9m0-1.15-19.85,11.47v23l19.85,11.47,19.86-11.48V377.67L808.69,366.2Z"/><path class="cls-1" d="M20.25,400.65l18.85,10.9v21.8l-18.85,10.9L1.4,433.35v-21.8l18.85-10.9m0-1.15L.4,411v22.95L20.25,445.4,40.1,433.92V411L20.25,399.5Z"/><path class="cls-1" d="M58.71,400.65l18.85,10.9v21.8l-18.85,10.9-18.85-10.9v-21.8l18.85-10.9m0-1.15L38.86,411v22.95L58.71,445.4l19.85-11.48V411L58.71,399.5Z"/><path class="cls-1" d="M97.17,400.65,116,411.55v21.8l-18.85,10.9-18.85-10.9v-21.8l18.85-10.9m0-1.15L77.32,411v22.95L97.17,445.4,117,433.92V411L97.17,399.5Z"/><path class="cls-1" d="M135.63,400.65l18.85,10.9v21.8l-18.85,10.9-18.85-10.9v-21.8l18.85-10.9m0-1.15L115.78,411v22.95l19.85,11.48,19.85-11.48V411L135.63,399.5Z"/><path class="cls-1" d="M174.09,400.65l18.85,10.9v21.8l-18.85,10.9-18.85-10.9v-21.8l18.85-10.9m0-1.15L154.24,411v22.95l19.85,11.48,19.85-11.48V411L174.09,399.5Z"/><path class="cls-1" d="M212.43,400.65l18.85,10.9v21.8l-18.85,10.9-18.85-10.9v-21.8l18.85-10.9m0-1.15L192.58,411v22.95l19.85,11.48,19.85-11.48V411L212.43,399.5Z"/><path class="cls-1" d="M250.89,400.65l18.85,10.9v21.8l-18.85,10.9L232,433.35v-21.8l18.85-10.9m0-1.15L231,411v22.95l19.85,11.48,19.85-11.48V411L250.89,399.5Z"/><path class="cls-1" d="M289.35,400.65l18.85,10.9v21.8l-18.85,10.9-18.85-10.9v-21.8l18.85-10.9m0-1.15L269.5,411v22.95l19.85,11.48,19.85-11.48V411L289.35,399.5Z"/><path class="cls-1" d="M327.81,400.65l18.85,10.9v21.8l-18.85,10.9L309,433.35v-21.8l18.85-10.9m0-1.15L308,411v22.95l19.85,11.48,19.85-11.48V411L327.81,399.5Z"/><path class="cls-1" d="M366.27,400.65l18.85,10.9v21.8l-18.85,10.9-18.85-10.9v-21.8l18.85-10.9m0-1.15L346.42,411v22.95l19.85,11.48,19.85-11.48V411L366.27,399.5Z"/><path class="cls-1" d="M404.73,400.65l18.85,10.9v21.8l-18.85,10.9-18.85-10.9v-21.8l18.85-10.9m0-1.15L384.88,411v22.95l19.85,11.48,19.85-11.48V411L404.73,399.5Z"/><path class="cls-1" d="M443.19,400.65,462,411.55v21.8l-18.85,10.9-18.85-10.9v-21.8l18.85-10.9m0-1.15L423.34,411v22.95l19.85,11.48L463,433.92V411L443.19,399.5Z"/><path class="cls-1" d="M481.65,400.65l18.85,10.9v21.8l-18.85,10.9-18.85-10.9v-21.8l18.85-10.9m0-1.15L461.8,411v22.95l19.85,11.48,19.85-11.48V411L481.65,399.5Z"/><path class="cls-1" d="M520.24,400.65l18.85,10.9v21.8l-18.85,10.9-18.85-10.9v-21.8l18.85-10.9m0-1.15L500.39,411v22.95l19.85,11.48,19.85-11.48V411L520.24,399.5Z"/><path class="cls-1" d="M558.58,400.65l18.85,10.9v21.8l-18.85,10.9-18.86-10.9v-21.8l18.86-10.9m0-1.15L538.72,411v22.95l19.86,11.48,19.85-11.48V411L558.58,399.5Z"/><path class="cls-1" d="M597,400.65l18.85,10.9v21.8L597,444.25l-18.85-10.9v-21.8L597,400.65m0-1.15L577.19,411v22.95L597,445.4l19.85-11.48V411L597,399.5Z"/><path class="cls-1" d="M635.5,400.65l18.85,10.9v21.8l-18.85,10.9-18.85-10.9v-21.8l18.85-10.9m0-1.15L615.65,411v22.95L635.5,445.4l19.85-11.48V411L635.5,399.5Z"/><path class="cls-1" d="M674,400.65l18.85,10.9v21.8L674,444.25l-18.85-10.9v-21.8L674,400.65m0-1.15L654.11,411v22.95L674,445.4l19.85-11.48V411L674,399.5Z"/><path class="cls-1" d="M712.42,400.65l18.85,10.9v21.8l-18.85,10.9-18.85-10.9v-21.8l18.85-10.9m0-1.15L692.57,411v22.95l19.85,11.48,19.85-11.48V411L712.42,399.5Z"/><path class="cls-1" d="M750.88,400.65l18.85,10.9v21.8l-18.85,10.9L732,433.35v-21.8l18.85-10.9m0-1.15L731,411v22.95l19.85,11.48,19.85-11.48V411L750.88,399.5Z"/><path class="cls-1" d="M789.34,400.65l18.85,10.9v21.8l-18.85,10.9-18.85-10.9v-21.8l18.85-10.9m0-1.15L769.49,411v22.95l19.85,11.48,19.85-11.48V411L789.34,399.5Z"/><path class="cls-1" d="M39.48,434l18.85,10.9v21.8l-18.85,10.9-18.85-10.9v-21.8L39.48,434m0-1.15L19.63,444.27v23L39.48,478.7l19.85-11.48v-23L39.48,432.8Z"/><path class="cls-1" d="M77.94,434l18.85,10.9v21.8l-18.85,10.9-18.85-10.9v-21.8L77.94,434m0-1.15L58.09,444.27v23L77.94,478.7l19.85-11.48v-23L77.94,432.8Z"/><path class="cls-1" d="M116.4,434l18.85,10.9v21.8l-18.85,10.9-18.85-10.9v-21.8L116.4,434m0-1.15L96.55,444.27v23L116.4,478.7l19.85-11.48v-23L116.4,432.8Z"/><path class="cls-1" d="M154.86,434l18.85,10.9v21.8l-18.85,10.9L136,466.65v-21.8L154.86,434m0-1.15L135,444.27v23l19.85,11.48,19.85-11.48v-23L154.86,432.8Z"/><path class="cls-1" d="M193.32,434l18.85,10.9v21.8l-18.85,10.9-18.85-10.9v-21.8L193.32,434m0-1.15-19.85,11.47v23l19.85,11.48,19.85-11.48v-23L193.32,432.8Z"/><path class="cls-1" d="M231.78,434l18.85,10.9v21.8l-18.85,10.9-18.85-10.9v-21.8L231.78,434m0-1.15-19.85,11.47v23l19.85,11.48,19.85-11.48v-23L231.78,432.8Z"/><path class="cls-1" d="M270.24,434l18.85,10.9v21.8l-18.85,10.9-18.85-10.9v-21.8L270.24,434m0-1.15-19.85,11.47v23l19.85,11.48,19.85-11.48v-23L270.24,432.8Z"/><path class="cls-1" d="M308.7,434l18.86,10.9v21.8l-18.85,10.9-18.85-10.9v-21.8L308.7,434m0-1.15-19.85,11.47v23L308.7,478.7l19.85-11.48v-23L308.7,432.8Z"/><path class="cls-1" d="M347.17,434,366,444.85v21.8l-18.85,10.9-18.86-10.9v-21.8L347.17,434m0-1.15-19.86,11.47v23l19.86,11.48L367,467.22v-23L347.17,432.8Z"/><path class="cls-1" d="M385.63,434l18.85,10.9v21.8l-18.85,10.9-18.85-10.9v-21.8L385.63,434m0-1.15-19.85,11.47v23l19.85,11.48,19.85-11.48v-23L385.63,432.8Z"/><path class="cls-1" d="M424.09,434l18.85,10.9v21.8l-18.85,10.9-18.85-10.9v-21.8L424.09,434m0-1.15-19.85,11.47v23l19.85,11.48,19.85-11.48v-23L424.09,432.8Z"/><path class="cls-1" d="M462.55,434l18.85,10.9v21.8l-18.85,10.9-18.85-10.9v-21.8L462.55,434m0-1.15L442.7,444.27v23l19.85,11.48,19.85-11.48v-23L462.55,432.8Z"/><path class="cls-1" d="M501,434l18.85,10.9v21.8L501,477.55l-18.85-10.9v-21.8L501,434m0-1.15-19.85,11.47v23L501,478.7l19.85-11.48v-23L501,432.8Z"/><path class="cls-1" d="M539.47,434l18.85,10.9v21.8l-18.85,10.9-18.85-10.9v-21.8L539.47,434m0-1.15-19.85,11.47v23l19.85,11.48,19.85-11.48v-23L539.47,432.8Z"/><path class="cls-1" d="M577.93,434l18.85,10.9v21.8l-18.85,10.9-18.85-10.9v-21.8L577.93,434m0-1.15-19.85,11.47v23l19.85,11.48,19.85-11.48v-23L577.93,432.8Z"/><path class="cls-1" d="M616.39,434l18.85,10.9v21.8l-18.85,10.9-18.85-10.9v-21.8L616.39,434m0-1.15-19.85,11.47v23l19.85,11.48,19.85-11.48v-23L616.39,432.8Z"/><path class="cls-1" d="M654.85,434l18.85,10.9v21.8l-18.85,10.9L636,466.65v-21.8L654.85,434m0-1.15L635,444.27v23l19.85,11.48,19.85-11.48v-23L654.85,432.8Z"/><path class="cls-1" d="M693.31,434l18.85,10.9v21.8l-18.85,10.9-18.85-10.9v-21.8L693.31,434m0-1.15-19.85,11.47v23l19.85,11.48,19.85-11.48v-23L693.31,432.8Z"/><path class="cls-1" d="M731.77,434l18.85,10.9v21.8l-18.85,10.9-18.85-10.9v-21.8L731.77,434m0-1.15-19.85,11.47v23l19.85,11.48,19.85-11.48v-23L731.77,432.8Z"/><path class="cls-1" d="M770.23,434l18.85,10.9v21.8l-18.85,10.9-18.85-10.9v-21.8L770.23,434m0-1.15-19.85,11.47v23l19.85,11.48,19.85-11.48v-23L770.23,432.8Z"/><path class="cls-1" d="M20.25,467.25l18.85,10.9V500L20.25,510.84,1.4,500v-21.8l18.85-10.9m0-1.15L.4,477.57v22.95L20.25,512,40.1,500.52V477.57L20.25,466.1Z"/><path class="cls-1" d="M58.71,467.25l18.85,10.9V500L58.71,510.84,39.86,500v-21.8l18.85-10.9m0-1.15L38.86,477.57v22.95L58.71,512l19.85-11.48V477.57L58.71,466.1Z"/><path class="cls-1" d="M97.17,467.25,116,478.15V500L97.17,510.84,78.32,500v-21.8l18.85-10.9m0-1.15L77.32,477.57v22.95L97.17,512,117,500.52V477.57L97.17,466.1Z"/><path class="cls-1" d="M135.63,467.25l18.85,10.9V500l-18.85,10.89L116.78,500v-21.8l18.85-10.9m0-1.15-19.85,11.47v22.95L135.63,512l19.85-11.48V477.57L135.63,466.1Z"/><path class="cls-1" d="M174.09,467.25l18.85,10.9V500l-18.85,10.89L155.24,500v-21.8l18.85-10.9m0-1.15-19.85,11.47v22.95L174.09,512l19.85-11.48V477.57L174.09,466.1Z"/><path class="cls-1" d="M212.43,467.25l18.85,10.9V500l-18.85,10.89L193.58,500v-21.8l18.85-10.9m0-1.15-19.85,11.47v22.95L212.43,512l19.85-11.48V477.57L212.43,466.1Z"/><path class="cls-1" d="M250.89,467.25l18.85,10.9V500l-18.85,10.89L232,500v-21.8l18.85-10.9m0-1.15L231,477.57v22.95L250.89,512l19.85-11.48V477.57L250.89,466.1Z"/><path class="cls-1" d="M289.35,467.25l18.85,10.9V500l-18.85,10.89L270.5,500v-21.8l18.85-10.9m0-1.15L269.5,477.57v22.95L289.35,512l19.85-11.48V477.57L289.35,466.1Z"/><path class="cls-1" d="M327.81,467.25l18.85,10.9V500l-18.85,10.89L309,500v-21.8l18.85-10.9m0-1.15L308,477.57v22.95L327.81,512l19.85-11.48V477.57L327.81,466.1Z"/><path class="cls-1" d="M366.27,467.25l18.85,10.9V500l-18.85,10.89L347.42,500v-21.8l18.85-10.9m0-1.15-19.85,11.47v22.95L366.27,512l19.85-11.48V477.57L366.27,466.1Z"/><path class="cls-1" d="M404.73,467.25l18.85,10.9V500l-18.85,10.89L385.88,500v-21.8l18.85-10.9m0-1.15-19.85,11.47v22.95L404.73,512l19.85-11.48V477.57L404.73,466.1Z"/><path class="cls-1" d="M443.19,467.25,462,478.15V500l-18.85,10.89L424.34,500v-21.8l18.85-10.9m0-1.15-19.85,11.47v22.95L443.19,512,463,500.52V477.57L443.19,466.1Z"/><path class="cls-1" d="M481.65,467.25l18.85,10.9V500l-18.85,10.89L462.8,500v-21.8l18.85-10.9m0-1.15L461.8,477.57v22.95L481.65,512l19.85-11.48V477.57L481.65,466.1Z"/><path class="cls-1" d="M520.24,467.25l18.85,10.9V500l-18.85,10.89L501.39,500v-21.8l18.85-10.9m0-1.15-19.85,11.47v22.95L520.24,512l19.85-11.48V477.57L520.24,466.1Z"/><path class="cls-1" d="M558.58,467.25l18.85,10.9V500l-18.85,10.89L539.72,500v-21.8l18.86-10.9m0-1.15-19.86,11.47v22.95L558.58,512l19.85-11.48V477.57L558.58,466.1Z"/><path class="cls-1" d="M597,467.25l18.85,10.9V500L597,510.84,578.19,500v-21.8L597,467.25m0-1.15-19.85,11.47v22.95L597,512l19.85-11.48V477.57L597,466.1Z"/><path class="cls-1" d="M635.5,467.25l18.85,10.9V500L635.5,510.84,616.65,500v-21.8l18.85-10.9m0-1.15-19.85,11.47v22.95L635.5,512l19.85-11.48V477.57L635.5,466.1Z"/><path class="cls-1" d="M674,467.25l18.85,10.9V500L674,510.84,655.11,500v-21.8L674,467.25m0-1.15-19.85,11.47v22.95L674,512l19.85-11.48V477.57L674,466.1Z"/><path class="cls-1" d="M712.42,467.25l18.85,10.9V500l-18.85,10.89L693.57,500v-21.8l18.85-10.9m0-1.15-19.85,11.47v22.95L712.42,512l19.85-11.48V477.57L712.42,466.1Z"/><path class="cls-1" d="M750.88,467.25l18.85,10.9V500l-18.85,10.89L732,500v-21.8l18.85-10.9m0-1.15L731,477.57v22.95L750.88,512l19.85-11.48V477.57L750.88,466.1Z"/><path class="cls-1" d="M847.16,167.6,866,178.5v21.8l-18.85,10.9L828.3,200.3V178.5l18.86-10.9m0-1.15L827.3,177.92v23l19.86,11.47L867,200.88v-23l-19.85-11.47Z"/><path class="cls-1" d="M866.26,200.9l18.85,10.9v21.8l-18.85,10.9-18.85-10.9V211.8l18.85-10.9m0-1.15-19.85,11.47v23l19.85,11.47,19.85-11.47v-23l-19.85-11.47Z"/><path class="cls-1" d="M885.62,234.2l18.85,10.9v21.8l-18.85,10.9-18.85-10.9V245.1l18.85-10.9m0-1.15-19.85,11.47v23L885.62,279l19.85-11.47v-23l-19.85-11.47Z"/><path class="cls-1" d="M866.26,267.5l18.85,10.9v21.8l-18.85,10.9-18.85-10.9V278.4l18.85-10.9m0-1.15-19.85,11.47v23l19.85,11.47,19.85-11.47v-23l-19.85-11.47Z"/><path class="cls-1" d="M847.16,300.8,866,311.7v21.8l-18.85,10.9L828.3,333.5V311.7l18.86-10.9m0-1.15L827.3,311.12v23l19.86,11.47L867,334.08v-23l-19.85-11.47Z"/><path class="cls-1" d="M847.16,234.2,866,245.1v21.8l-18.85,10.9L828.3,266.9V245.1l18.86-10.9m0-1.15L827.3,244.52v23L847.16,279,867,267.48v-23l-19.85-11.47Z"/></g><g id="Text"><text class="cls-3" transform="translate(1009 195.64) scale(1.04 1)">E<tspan class="cls-4" x="39.37" y="0">du</tspan><tspan class="cls-5" x="120.66" y="0">F</tspan><tspan class="cls-6" x="159.96" y="0">o</tspan><tspan class="cls-7" x="200.6" y="0">r</tspan><tspan class="cls-6" x="225.28" y="0">ge</tspan></text><rect class="cls-8" x="1011" y="235" width="3" height="158"/><rect class="cls-9" x="1014" y="235" width="496" height="158"/><text class="cls-10" transform="translate(1029 288.33)"> <tspan class="cls-11" x="130.5" y="0"></tspan><tspan x="144.61" y="0"> </tspan><tspan class="cls-12" x="182.04" y="0"></tspan><tspan x="197.8" y="0">   </tspan><tspan x="0" y="33.6"></tspan><tspan class="cls-13" x="75.8" y="33.6"></tspan><tspan x="95.66" y="33.6"> ,  </tspan><tspan class="cls-11" x="431.06" y="33.6"></tspan><tspan x="445.17" y="33.6"> </tspan><tspan x="0" y="67.2"> .</tspan></text></g><g id="Logo"><polygon class="cls-14" points="572.65 170.74 423.09 84.39 273.53 170.74 273.53 343.43 423.09 429.78 572.65 343.43 572.65 170.74"/><polygon class="cls-15" points="422.58 257.25 273.06 170.92 422.69 84.42 422.58 257.25"/><path class="cls-16" d="M422.53,430S273,343.42,272.86,343.58s149.65-86.37,149.65-86.37Z"/><polygon class="cls-16" points="572.11 343.59 422.58 257.25 572.21 170.75 572.11 343.59"/><polygon class="cls-17" points="422.58 257.25 422.62 84.6 572.33 170.96 422.58 257.25"/><polygon class="cls-17" points="272.84 343.55 272.87 170.89 422.58 257.25 272.84 343.55"/><polygon class="cls-18" points="422.55 429.91 422.58 257.25 572.29 343.61 422.55 429.91"/><path class="cls-8" d="M422.58,257.25"/><rect class="cls-8" x="411.41" y="208.89" width="23.19" height="96.48"/><rect class="cls-8" x="405.98" y="198.6" width="34.05" height="10.61"/><rect class="cls-8" x="400.54" y="188.31" width="44.92" height="10.61"/><rect class="cls-8" x="405.98" y="305.06" width="34.05" height="10.61"/><rect class="cls-8" x="400.18" y="315.35" width="44.92" height="10.61"/><rect class="cls-8" x="356.71" y="208.89" width="23.19" height="96.48"/><rect class="cls-8" x="351.28" y="198.6" width="34.05" height="10.61"/><rect class="cls-8" x="345.84" y="188.31" width="44.92" height="10.61"/><rect class="cls-8" x="351.28" y="305.06" width="34.05" height="10.61"/><rect class="cls-8" x="345.48" y="315.35" width="44.92" height="10.61"/><rect class="cls-8" x="465.75" y="208.89" width="23.19" height="96.48"/><rect class="cls-8" x="460.32" y="198.6" width="34.05" height="10.61"/><rect class="cls-8" x="454.89" y="188.31" width="44.92" height="10.61"/><rect class="cls-8" x="460.32" y="305.06" width="34.05" height="10.61"/><rect class="cls-8" x="454.52" y="315.35" width="44.92" height="10.61"/><rect class="cls-8" x="323.78" y="178.06" width="197.69" height="6.84"/><rect class="cls-8" x="329.26" y="329.35" width="186.53" height="6.84"/><rect class="cls-8" x="322.65" y="339.59" width="199.75" height="28.27"/><polygon class="cls-8" points="323.78 174.63 521.39 174.63 422.58 127.42 323.78 174.63"/></g></svg>