<svg xmlns="http://www.w3.org/2000/svg" viewBox="0 0 1920 512"><defs><style>.cls-1{fill:#2a4c68;}.cls-2{fill:#1682bf;}.cls-3{font-size:72px;font-family:Roboto-Bold, Roboto;font-weight:700;letter-spacing:-0.01em;}.cls-10,.cls-3,.cls-8{fill:#fff;}.cls-4{letter-spacing:0em;}.cls-5{letter-spacing:-0.01em;}.cls-6{letter-spacing:0em;}.cls-7{letter-spacing:-0.01em;}.cls-9{fill:#335977;}.cls-10{font-size:28px;font-family:Roboto-Regular, Roboto;}.cls-11{letter-spacing:-0.01em;}.cls-12{letter-spacing:-0.01em;}.cls-13{letter-spacing:-0.01em;}.cls-14{fill:#e74c3c;}.cls-15{fill:#e04535;}.cls-16{fill:#c92e1e;}.cls-17{fill:#d83d2d;}.cls-18{fill:#ba1f0f;}</style></defs><title>main-image2</title><g id="Background"><rect class="cls-1" width="1920" height="512"/><polygon class="cls-2" points="708.55 512 0.13 512 0.13 0 708.55 0 836.26 257 708.55 512"/><polygon class="cls-2" points="760.16 512 738.19 512 866.19 257.03 738.19 0 760.16 0 887.87 257 760.16 512"/></g><g id="Text"><text class="cls-3" transform="translate(943 195.64) scale(1.04 1)">E<tspan class="cls-4" x="39.37" y="0">du</tspan><tspan class="cls-5" x="120.66" y="0">F</tspan><tspan class="cls-6" x="159.96" y="0">o</tspan><tspan class="cls-7" x="200.6" y="0">r</tspan><tspan class="cls-6" x="225.28" y="0">ge</tspan></text><rect class="cls-8" x="945" y="235" width="3" height="158"/><rect class="cls-9" x="948" y="235" width="496" height="158"/><text class="cls-10" transform="translate(963 288.33)">Надійний <tspan class="cls-11" x="130.5" y="0">т</tspan><tspan x="144.61" y="0">а з</tspan><tspan class="cls-12" x="182.04" y="0">р</tspan><tspan x="197.8" y="0">учний засіб для </tspan><tspan x="0" y="33.6">збере</tspan><tspan class="cls-13" x="75.8" y="33.6">ж</tspan><tspan x="95.66" y="33.6">ення дипломів, курсових </tspan><tspan class="cls-11" x="431.06" y="33.6">т</tspan><tspan x="445.17" y="33.6">а </tspan><tspan x="0" y="67.2">інших документів.</tspan></text></g><g id="Logo"><polygon class="cls-14" points="572.65 170.74 423.09 84.39 273.53 170.74 273.53 343.43 423.09 429.78 572.65 343.43 572.65 170.74"/><polygon class="cls-15" points="422.58 257.25 273.06 170.92 422.69 84.42 422.58 257.25"/><path class="cls-16" d="M422.53,430S273,343.42,272.86,343.58s149.65-86.37,149.65-86.37Z"/><polygon class="cls-16" points="572.11 343.59 422.58 257.25 572.21 170.75 572.11 343.59"/><polygon class="cls-17" points="422.58 257.25 422.62 84.6 572.33 170.96 422.58 257.25"/><polygon class="cls-17" points="272.84 343.55 272.87 170.89 422.58 257.25 272.84 343.55"/><polygon class="cls-18" points="422.55 429.91 422.58 257.25 572.29 343.61 422.55 429.91"/><path class="cls-8" d="M422.58,257.25"/><rect class="cls-8" x="411.41" y="208.89" width="23.19" height="96.48"/><rect class="cls-8" x="405.98" y="198.6" width="34.05" height="10.61"/><rect class="cls-8" x="400.54" y="188.31" width="44.92" height="10.61"/><rect class="cls-8" x="405.98" y="305.06" width="34.05" height="10.61"/><rect class="cls-8" x="400.18" y="315.35" width="44.92" height="10.61"/><rect class="cls-8" x="356.71" y="208.89" width="23.19" height="96.48"/><rect class="cls-8" x="351.28" y="198.6" width="34.05" height="10.61"/><rect class="cls-8" x="345.84" y="188.31" width="44.92" height="10.61"/><rect class="cls-8" x="351.28" y="305.06" width="34.05" height="10.61"/><rect class="cls-8" x="345.48" y="315.35" width="44.92" height="10.61"/><rect class="cls-8" x="465.75" y="208.89" width="23.19" height="96.48"/><rect class="cls-8" x="460.32" y="198.6" width="34.05" height="10.61"/><rect class="cls-8" x="454.89" y="188.31" width="44.92" height="10.61"/><rect class="cls-8" x="460.32" y="305.06" width="34.05" height="10.61"/><rect class="cls-8" x="454.52" y="315.35" width="44.92" height="10.61"/><rect class="cls-8" x="323.78" y="178.06" width="197.69" height="6.84"/><rect class="cls-8" x="329.26" y="329.35" width="186.53" height="6.84"/><rect class="cls-8" x="322.65" y="339.59" width="199.75" height="28.27"/><polygon class="cls-8" points="323.78 174.63 521.39 174.63 422.58 127.42 323.78 174.63"/></g></svg>